Nobel-Condensed.ufo
<glyph name="exclam" format="1">
  <advance width="204"/>
  <unicode hex="0021"/>
  <outline>
    <contour>
      <point x="147" y="390" type="line"/>
      <point x="125" y="151" type="line"/>
      <point x="79" y="151" type="line"/>
      <point x="57" y="390" type="line"/>
      <point x="57" y="730" type="line"/>
      <point x="147" y="730" type="line"/>
    </contour>
    <contour>
      <point x="147" y="0" type="line"/>
      <point x="57" y="0" type="line"/>
      <point x="57" y="104" type="line"/>
      <point x="147" y="104" type="line"/>
    </contour>
  </outline>
</glyph>
<glyph name="quotedbl" format="1">
  <advance width="301"/>
  <unicode hex="0022"/>
  <outline>
    <contour>
      <point x="261" y="623" type="line"/>
      <point x="241" y="513" type="line"/>
      <point x="196" y="513" type="line"/>
      <point x="176" y="623" type="line"/>
      <point x="176" y="730" type="line"/>
      <point x="261" y="730" type="line"/>
    </contour>
    <contour>
      <point x="125" y="623" type="line"/>
      <point x="105" y="513" type="line"/>
      <point x="60" y="513" type="line"/>
      <point x="40" y="623" type="line"/>
      <point x="40" y="730" type="line"/>
      <point x="125" y="730" type="line"/>
    </contour>
  </outline>
</glyph>
<glyph name="numbersign" format="1">
  <advance width="536"/>
  <unicode hex="0023"/>
  <outline>
    <contour>
      <point x="504" y="207" type="line"/>
      <point x="389" y="207" type="line"/>
      <point x="371" y="0" type="line"/>
      <point x="291" y="0" type="line"/>
      <point x="309" y="207" type="line"/>
      <point x="199" y="207" type="line"/>
      <point x="181" y="0" type="line"/>
      <point x="101" y="0" type="line"/>
      <point x="119" y="207" type="line"/>
      <point x="32" y="207" type="line"/>
      <point x="32" y="273" type="line"/>
      <point x="125" y="273" type="line"/>
      <point x="141" y="460" type="line"/>
      <point x="32" y="460" type="line"/>
      <point x="32" y="526" type="line"/>
      <point x="147" y="526" type="line"/>
      <point x="165" y="730" type="line"/>
      <point x="245" y="730" type="line"/>
      <point x="227" y="526" type="line"/>
      <point x="337" y="526" type="line"/>
      <point x="355" y="730" type="line"/>
      <point x="435" y="730" type="line"/>
      <point x="417" y="526" type="line"/>
      <point x="504" y="526" type="line"/>
      <point x="504" y="460" type="line"/>
      <point x="411" y="460" type="line"/>
      <point x="395" y="273" type="line"/>
      <point x="504" y="273" type="line"/>
    </contour>
    <contour>
      <point x="331" y="460" type="line"/>
      <point x="221" y="460" type="line"/>
      <point x="205" y="273" type="line"/>
      <point x="315" y="273" type="line"/>
    </contour>
  </outline>
</glyph>
<glyph name="dollar" format="1">
  <advance width="366"/>
  <unicode hex="0024"/>
  <outline>
    <contour>
      <point x="338" y="181" type="curve" smooth="yes"/>
      <point x="338" y="92"/>
      <point x="285" y="18"/>
      <point x="205" y="2" type="curve"/>
      <point x="205" y="-79" type="line"/>
      <point x="153" y="-79" type="line"/>
      <point x="153" y="-1" type="line"/>
      <point x="95" y="4"/>
      <point x="47" y="35"/>
      <point x="21" y="77" type="curve"/>
      <point x="82" y="138" type="line"/>
      <point x="103" y="109"/>
      <point x="136" y="87"/>
      <point x="172" y="87" type="curve" smooth="yes"/>
      <point x="226" y="87"/>
      <point x="246" y="129"/>
      <point x="246" y="175" type="curve" smooth="yes"/>
      <point x="246" y="244"/>
      <point x="192" y="293"/>
      <point x="138" y="347" type="curve" smooth="yes"/>
      <point x="81" y="402"/>
      <point x="24" y="461"/>
      <point x="24" y="549" type="curve" smooth="yes"/>
      <point x="24" y="629"/>
      <point x="72" y="710"/>
      <point x="153" y="728" type="curve"/>
      <point x="153" y="788" type="line"/>
      <point x="205" y="788" type="line"/>
      <point x="205" y="731" type="line"/>
      <point x="261" y="727"/>
      <point x="299" y="699"/>
      <point x="324" y="663" type="curve"/>
      <point x="261" y="605" type="line"/>
      <point x="238" y="630"/>
      <point x="216" y="643"/>
      <point x="188" y="643" type="curve" smooth="yes"/>
      <point x="138" y="643"/>
      <point x="116" y="603"/>
      <point x="116" y="554" type="curve" smooth="yes"/>
      <point x="116" y="497"/>
      <point x="164" y="453"/>
      <point x="215" y="403" type="curve" smooth="yes"/>
      <point x="274" y="346"/>
      <point x="338" y="282"/>
    </contour>
  </outline>
</glyph>
<glyph name="ampersand" format="1">
  <advance width="450"/>
  <unicode hex="0026"/>
  <outline>
    <contour>
      <point x="433" y="0" type="line"/>
      <point x="335" y="0" type="line"/>
      <point x="307" y="51" type="line"/>
      <point x="270" y="16"/>
      <point x="226" y="-12"/>
      <point x="180" y="-12" type="curve" smooth="yes"/>
      <point x="85" y="-12"/>
      <point x="23" y="78"/>
      <point x="23" y="174" type="curve" smooth="yes"/>
      <point x="23" y="264"/>
      <point x="75" y="327"/>
      <point x="124" y="389" type="curve"/>
      <point x="89" y="452" type="line" smooth="yes"/>
      <point x="70" y="487"/>
      <point x="55" y="539"/>
      <point x="55" y="585" type="curve" smooth="yes"/>
      <point x="55" y="669"/>
      <point x="98" y="742"/>
      <point x="177" y="742" type="curve" smooth="yes"/>
      <point x="254" y="742"/>
      <point x="298" y="670"/>
      <point x="298" y="585" type="curve" smooth="yes"/>
      <point x="298" y="499"/>
      <point x="261" y="435"/>
      <point x="222" y="381" type="curve"/>
      <point x="322" y="199" type="line"/>
      <point x="339" y="226"/>
      <point x="353" y="255"/>
      <point x="361" y="274" type="curve"/>
      <point x="411" y="189" type="line"/>
      <point x="403" y="174"/>
      <point x="387" y="146"/>
      <point x="367" y="118" type="curve"/>
    </contour>
    <contour>
      <point x="215" y="585" type="curve" smooth="yes"/>
      <point x="215" y="617"/>
      <point x="205" y="655"/>
      <point x="177" y="655" type="curve" smooth="yes"/>
      <point x="147" y="655"/>
      <point x="140" y="620"/>
      <point x="140" y="585" type="curve" smooth="yes"/>
      <point x="140" y="556"/>
      <point x="145" y="524"/>
      <point x="158" y="496" type="curve" smooth="yes"/>
      <point x="178" y="452" type="line"/>
      <point x="202" y="487"/>
      <point x="215" y="540"/>
    </contour>
    <contour>
      <point x="268" y="127" type="curve"/>
      <point x="167" y="314" type="line"/>
      <point x="141" y="278"/>
      <point x="117" y="224"/>
      <point x="117" y="174" type="curve" smooth="yes"/>
      <point x="117" y="124"/>
      <point x="141" y="77"/>
      <point x="180" y="77" type="curve" smooth="yes"/>
      <point x="209" y="77"/>
      <point x="241" y="98"/>
    </contour>
  </outline>
</glyph>
<glyph name="quotesingle" format="1">
  <advance width="165"/>
  <unicode hex="0027"/>
  <outline>
    <contour>
      <point x="125" y="623" type="line"/>
      <point x="105" y="513" type="line"/>
      <point x="60" y="513" type="line"/>
      <point x="40" y="623" type="line"/>
      <point x="40" y="730" type="line"/>
      <point x="125" y="730" type="line"/>
    </contour>
  </outline>
</glyph>
<glyph name="parenleft" format="1">
  <advance width="250"/>
  <unicode hex="0028"/>
  <outline>
    <contour>
      <point x="224" y="-179" type="line"/>
      <point x="122" y="-78"/>
      <point x="35" y="100"/>
      <point x="35" y="285" type="curve" smooth="yes"/>
      <point x="35" y="470"/>
      <point x="122" y="629"/>
      <point x="224" y="730" type="curve"/>
      <point x="224" y="640" type="line"/>
      <point x="162" y="545"/>
      <point x="128" y="440"/>
      <point x="128" y="285" type="curve" smooth="yes"/>
      <point x="128" y="130"/>
      <point x="162" y="-1"/>
      <point x="224" y="-96" type="curve"/>
    </contour>
  </outline>
</glyph>
<glyph name="parenright" format="1">
  <advance width="250"/>
  <unicode hex="0029"/>
  <outline>
    <contour>
      <point x="215" y="285" type="curve" smooth="yes"/>
      <point x="215" y="100"/>
      <point x="128" y="-78"/>
      <point x="26" y="-179" type="curve"/>
      <point x="26" y="-96" type="line"/>
      <point x="88" y="-1"/>
      <point x="122" y="130"/>
      <point x="122" y="285" type="curve" smooth="yes"/>
      <point x="122" y="440"/>
      <point x="88" y="545"/>
      <point x="26" y="640" type="curve"/>
      <point x="26" y="730" type="line"/>
      <point x="128" y="629"/>
      <point x="215" y="470"/>
    </contour>
  </outline>
</glyph>
<glyph name="asterisk" format="1">
  <advance width="363"/>
  <unicode hex="002A"/>
  <outline>
    <contour>
      <point x="338" y="598" type="line"/>
      <point x="238" y="555" type="line"/>
      <point x="293" y="464" type="line"/>
      <point x="252" y="432" type="line"/>
      <point x="181" y="514" type="line"/>
      <point x="111" y="433" type="line"/>
      <point x="68" y="463" type="line"/>
      <point x="124" y="556" type="line"/>
      <point x="25" y="597" type="line"/>
      <point x="41" y="647" type="line"/>
      <point x="146" y="622" type="line"/>
      <point x="155" y="730" type="line"/>
      <point x="207" y="730" type="line"/>
      <point x="215" y="622" type="line"/>
      <point x="320" y="647" type="line"/>
    </contour>
  </outline>
</glyph>
<glyph name="plus" format="1">
  <advance width="382"/>
  <unicode hex="002B"/>
  <outline>
    <contour>
      <point x="347" y="288" type="line"/>
      <point x="236" y="288" type="line"/>
      <point x="236" y="165" type="line"/>
      <point x="146" y="165" type="line"/>
      <point x="146" y="288" type="line"/>
      <point x="35" y="288" type="line"/>
      <point x="35" y="374" type="line"/>
      <point x="146" y="374" type="line"/>
      <point x="146" y="497" type="line"/>
      <point x="236" y="497" type="line"/>
      <point x="236" y="374" type="line"/>
      <point x="347" y="374" type="line"/>
    </contour>
  </outline>
</glyph>
<glyph name="comma" format="1">
  <advance width="165"/>
  <unicode hex="002C"/>
  <outline>
    <contour>
      <point x="125" y="16" type="line"/>
      <point x="115" y="-40"/>
      <point x="92" y="-99"/>
      <point x="52" y="-141" type="curve"/>
      <point x="1" y="-141" type="line"/>
      <point x="30" y="-94"/>
      <point x="40" y="-50"/>
      <point x="40" y="24" type="curve" smooth="yes"/>
      <point x="40" y="100" type="line"/>
      <point x="125" y="100" type="line"/>
    </contour>
  </outline>
</glyph>
<glyph name="hyphen" format="1">
  <advance width="210"/>
  <unicode hex="002D"/>
  <unicode hex="2010"/>
  <unicode hex="2011"/>
  <outline>
    <contour>
      <point x="175" y="171" type="line"/>
      <point x="35" y="171" type="line"/>
      <point x="35" y="256" type="line"/>
      <point x="175" y="256" type="line"/>
    </contour>
  </outline>
</glyph>
<glyph name="period" format="1">
  <advance width="165"/>
  <unicode hex="002E"/>
  <outline>
    <contour>
      <point x="125" y="0" type="line"/>
      <point x="40" y="0" type="line"/>
      <point x="40" y="95" type="line"/>
      <point x="125" y="95" type="line"/>
    </contour>
  </outline>
</glyph>
<glyph name="slash" format="1">
  <advance width="272"/>
  <unicode hex="002F"/>
  <outline>
    <contour>
      <point x="242" y="730" type="line"/>
      <point x="107" y="0" type="line"/>
      <point x="30" y="0" type="line"/>
      <point x="165" y="730" type="line"/>
    </contour>
  </outline>
</glyph>
<glyph name="zero" format="1">
  <advance width="427"/>
  <unicode hex="0030"/>
  <outline>
    <contour>
      <point x="399" y="377" type="curve" smooth="yes"/>
      <point x="399" y="211"/>
      <point x="365" y="-12"/>
      <point x="217" y="-12" type="curve" smooth="yes"/>
      <point x="74" y="-12"/>
      <point x="28" y="202"/>
      <point x="28" y="363" type="curve" smooth="yes"/>
      <point x="28" y="513"/>
      <point x="62" y="742"/>
      <point x="215" y="742" type="curve" smooth="yes"/>
      <point x="370" y="742"/>
      <point x="399" y="518"/>
    </contour>
    <contour>
      <point x="305" y="372" type="curve" smooth="yes"/>
      <point x="303" y="487"/>
      <point x="285" y="653"/>
      <point x="216" y="653" type="curve" smooth="yes"/>
      <point x="139" y="653"/>
      <point x="122" y="483"/>
      <point x="122" y="366" type="curve" smooth="yes"/>
      <point x="122" y="249"/>
      <point x="141" y="77"/>
      <point x="214" y="77" type="curve" smooth="yes"/>
      <point x="287" y="77"/>
      <point x="307" y="253"/>
    </contour>
  </outline>
</glyph>
<glyph name="one" format="1">
  <advance width="239"/>
  <unicode hex="0031"/>
  <outline>
    <contour>
      <point x="188" y="0" type="line"/>
      <point x="98" y="0" type="line"/>
      <point x="98" y="577" type="line"/>
      <point x="89" y="557"/>
      <point x="46" y="530"/>
      <point x="14" y="525" type="curve"/>
      <point x="14" y="612" type="line"/>
      <point x="61" y="627"/>
      <point x="113" y="683"/>
      <point x="119" y="730" type="curve"/>
      <point x="188" y="730" type="line"/>
    </contour>
  </outline>
</glyph>
<glyph name="two" format="1">
  <advance width="372"/>
  <unicode hex="0032"/>
  <outline>
    <contour>
      <point x="327" y="0" type="line"/>
      <point x="23" y="0" type="line"/>
      <point x="214" y="464" type="line" smooth="yes"/>
      <point x="228" y="499"/>
      <point x="234" y="536"/>
      <point x="234" y="566" type="curve" smooth="yes"/>
      <point x="234" y="614"/>
      <point x="218" y="653"/>
      <point x="171" y="653" type="curve" smooth="yes"/>
      <point x="129" y="653"/>
      <point x="110" y="614"/>
      <point x="110" y="568" type="curve" smooth="yes"/>
      <point x="110" y="542" type="line"/>
      <point x="20" y="542" type="line"/>
      <point x="20" y="568" type="line" smooth="yes"/>
      <point x="20" y="673"/>
      <point x="88" y="742"/>
      <point x="173" y="742" type="curve" smooth="yes"/>
      <point x="267" y="742"/>
      <point x="327" y="669"/>
      <point x="326" y="566" type="curve" smooth="yes"/>
      <point x="326" y="529"/>
      <point x="318" y="496"/>
      <point x="302" y="456" type="curve" smooth="yes"/>
      <point x="154" y="85" type="line"/>
      <point x="327" y="85" type="line"/>
    </contour>
  </outline>
</glyph>
<glyph name="three" format="1">
  <advance width="394"/>
  <unicode hex="0033"/>
  <outline>
    <contour>
      <point x="362" y="207" type="curve" smooth="yes"/>
      <point x="362" y="97"/>
      <point x="296" y="-12"/>
      <point x="169" y="-12" type="curve" smooth="yes"/>
      <point x="105" y="-12"/>
      <point x="37" y="25"/>
      <point x="10" y="70" type="curve"/>
      <point x="72" y="129" type="line"/>
      <point x="98" y="99"/>
      <point x="127" y="77"/>
      <point x="172" y="77" type="curve" smooth="yes"/>
      <point x="244" y="77"/>
      <point x="268" y="133"/>
      <point x="268" y="198" type="curve" smooth="yes"/>
      <point x="268" y="275"/>
      <point x="247" y="343"/>
      <point x="153" y="343" type="curve" smooth="yes"/>
      <point x="131" y="343" type="line"/>
      <point x="131" y="428" type="line"/>
      <point x="145" y="428" type="line" smooth="yes"/>
      <point x="229" y="428"/>
      <point x="249" y="485"/>
      <point x="249" y="555" type="curve" smooth="yes"/>
      <point x="249" y="605"/>
      <point x="228" y="653"/>
      <point x="182" y="653" type="curve" smooth="yes"/>
      <point x="136" y="653"/>
      <point x="109" y="607"/>
      <point x="99" y="564" type="curve"/>
      <point x="20" y="595" type="line"/>
      <point x="35" y="669"/>
      <point x="99" y="742"/>
      <point x="186" y="742" type="curve" smooth="yes"/>
      <point x="273" y="742"/>
      <point x="343" y="660"/>
      <point x="343" y="561" type="curve" smooth="yes"/>
      <point x="343" y="485"/>
      <point x="311" y="408"/>
      <point x="251" y="386" type="curve"/>
      <point x="313" y="374"/>
      <point x="362" y="305"/>
    </contour>
  </outline>
</glyph>
<glyph name="four" format="1">
  <advance width="394"/>
  <unicode hex="0034"/>
  <outline>
    <contour>
      <point x="370" y="167" type="line"/>
      <point x="310" y="167" type="line"/>
      <point x="310" y="1" type="line"/>
      <point x="220" y="1" type="line"/>
      <point x="220" y="167" type="line"/>
      <point x="16" y="167" type="line"/>
      <point x="16" y="232" type="line"/>
      <point x="243" y="730" type="line"/>
      <point x="310" y="730" type="line"/>
      <point x="310" y="252" type="line"/>
      <point x="370" y="252" type="line"/>
    </contour>
    <contour>
      <point x="222" y="525" type="curve"/>
      <point x="103" y="252" type="line"/>
      <point x="220" y="252" type="line"/>
      <point x="220" y="496" type="line" smooth="yes"/>
      <point x="220" y="506"/>
      <point x="222" y="525"/>
    </contour>
  </outline>
</glyph>
<glyph name="five" format="1">
  <advance width="392"/>
  <unicode hex="0035"/>
  <outline>
    <contour>
      <point x="355" y="247" type="curve" smooth="yes"/>
      <point x="355" y="98"/>
      <point x="300" y="-12"/>
      <point x="170" y="-12" type="curve" smooth="yes"/>
      <point x="113" y="-12"/>
      <point x="59" y="17"/>
      <point x="29" y="58" type="curve"/>
      <point x="88" y="119" type="line"/>
      <point x="108" y="95"/>
      <point x="134" y="77"/>
      <point x="170" y="77" type="curve" smooth="yes"/>
      <point x="244" y="77"/>
      <point x="261" y="145"/>
      <point x="261" y="247" type="curve" smooth="yes"/>
      <point x="261" y="331"/>
      <point x="242" y="410"/>
      <point x="186" y="410" type="curve" smooth="yes"/>
      <point x="139" y="410"/>
      <point x="123" y="356"/>
      <point x="118" y="314" type="curve"/>
      <point x="49" y="330" type="line"/>
      <point x="59" y="730" type="line"/>
      <point x="311" y="730" type="line"/>
      <point x="311" y="645" type="line"/>
      <point x="139" y="645" type="line"/>
      <point x="133" y="465" type="line"/>
      <point x="147" y="486"/>
      <point x="176" y="499"/>
      <point x="207" y="499" type="curve" smooth="yes"/>
      <point x="311" y="499"/>
      <point x="355" y="372"/>
    </contour>
  </outline>
</glyph>
<glyph name="six" format="1">
  <advance width="395"/>
  <unicode hex="0036"/>
  <outline>
    <contour>
      <point x="364" y="235" type="curve" smooth="yes"/>
      <point x="364" y="120"/>
      <point x="326" y="-12"/>
      <point x="196" y="-12" type="curve" smooth="yes"/>
      <point x="90" y="-12"/>
      <point x="29" y="92"/>
      <point x="29" y="235" type="curve" smooth="yes"/>
      <point x="29" y="300"/>
      <point x="45" y="393"/>
      <point x="66" y="450" type="curve" smooth="yes"/>
      <point x="169" y="730" type="line"/>
      <point x="264" y="730" type="line"/>
      <point x="154" y="438" type="line"/>
      <point x="176" y="459"/>
      <point x="195" y="468"/>
      <point x="219" y="468" type="curve" smooth="yes"/>
      <point x="324" y="468"/>
      <point x="364" y="337"/>
    </contour>
    <contour>
      <point x="270" y="231" type="curve" smooth="yes"/>
      <point x="270" y="307"/>
      <point x="253" y="379"/>
      <point x="195" y="379" type="curve" smooth="yes"/>
      <point x="141" y="379"/>
      <point x="123" y="306"/>
      <point x="123" y="235" type="curve" smooth="yes"/>
      <point x="123" y="164"/>
      <point x="131" y="77"/>
      <point x="199" y="77" type="curve" smooth="yes"/>
      <point x="256" y="77"/>
      <point x="270" y="163"/>
    </contour>
  </outline>
</glyph>
<glyph name="seven" format="1">
  <advance width="359"/>
  <unicode hex="0037"/>
  <outline>
    <contour>
      <point x="338" y="730" type="line"/>
      <point x="127" y="0" type="line"/>
      <point x="38" y="0" type="line"/>
      <point x="225" y="645" type="line"/>
      <point x="36" y="645" type="line"/>
      <point x="36" y="730" type="line"/>
    </contour>
  </outline>
</glyph>
<glyph name="eight" format="1">
  <advance width="406"/>
  <unicode hex="0038"/>
  <outline>
    <contour>
      <point x="382" y="204" type="curve" smooth="yes"/>
      <point x="382" y="79"/>
      <point x="307" y="-12"/>
      <point x="202" y="-12" type="curve" smooth="yes"/>
      <point x="96" y="-12"/>
      <point x="24" y="82"/>
      <point x="24" y="204" type="curve" smooth="yes"/>
      <point x="24" y="283"/>
      <point x="60" y="367"/>
      <point x="115" y="383" type="curve"/>
      <point x="66" y="411"/>
      <point x="48" y="484"/>
      <point x="48" y="545" type="curve" smooth="yes"/>
      <point x="48" y="651"/>
      <point x="107" y="742"/>
      <point x="201" y="742" type="curve" smooth="yes"/>
      <point x="299" y="742"/>
      <point x="358" y="649"/>
      <point x="358" y="541" type="curve" smooth="yes"/>
      <point x="358" y="484"/>
      <point x="340" y="411"/>
      <point x="291" y="383" type="curve"/>
      <point x="346" y="367"/>
      <point x="382" y="283"/>
    </contour>
    <contour>
      <point x="264" y="536" type="curve" smooth="yes"/>
      <point x="264" y="585"/>
      <point x="253" y="653"/>
      <point x="203" y="653" type="curve" smooth="yes"/>
      <point x="156" y="653"/>
      <point x="142" y="593"/>
      <point x="142" y="536" type="curve" smooth="yes"/>
      <point x="142" y="481"/>
      <point x="156" y="426"/>
      <point x="203" y="426" type="curve" smooth="yes"/>
      <point x="253" y="426"/>
      <point x="264" y="481"/>
    </contour>
    <contour>
      <point x="288" y="207" type="curve" smooth="yes"/>
      <point x="288" y="274"/>
      <point x="256" y="341"/>
      <point x="203" y="341" type="curve" smooth="yes"/>
      <point x="150" y="341"/>
      <point x="118" y="273"/>
      <point x="118" y="207" type="curve" smooth="yes"/>
      <point x="118" y="135"/>
      <point x="140" y="77"/>
      <point x="203" y="77" type="curve" smooth="yes"/>
      <point x="267" y="77"/>
      <point x="288" y="135"/>
    </contour>
  </outline>
</glyph>
<glyph name="nine" format="1">
  <advance width="394"/>
  <unicode hex="0039"/>
  <outline>
    <contour>
      <point x="360" y="504" type="curve" smooth="yes"/>
      <point x="360" y="408"/>
      <point x="346" y="340"/>
      <point x="322" y="272" type="curve" smooth="yes"/>
      <point x="223" y="-12" type="line"/>
      <point x="144" y="20" type="line"/>
      <point x="237" y="276" type="line"/>
      <point x="219" y="260"/>
      <point x="202" y="254"/>
      <point x="176" y="254" type="curve" smooth="yes"/>
      <point x="69" y="254"/>
      <point x="26" y="384"/>
      <point x="26" y="502" type="curve" smooth="yes"/>
      <point x="26" y="626"/>
      <point x="80" y="742"/>
      <point x="195" y="742" type="curve" smooth="yes"/>
      <point x="301" y="742"/>
      <point x="360" y="628"/>
    </contour>
    <contour>
      <point x="266" y="504" type="curve" smooth="yes"/>
      <point x="266" y="569"/>
      <point x="253" y="653"/>
      <point x="191" y="653" type="curve" smooth="yes"/>
      <point x="133" y="653"/>
      <point x="120" y="568"/>
      <point x="120" y="505" type="curve" smooth="yes"/>
      <point x="120" y="432"/>
      <point x="131" y="343"/>
      <point x="192" y="343" type="curve" smooth="yes"/>
      <point x="256" y="343"/>
      <point x="266" y="440"/>
    </contour>
  </outline>
</glyph>
<glyph name="colon" format="1">
  <advance width="165"/>
  <unicode hex="003A"/>
  <outline>
    <contour>
      <point x="125" y="321" type="line"/>
      <point x="40" y="321" type="line"/>
      <point x="40" y="416" type="line"/>
      <point x="125" y="416" type="line"/>
    </contour>
    <contour>
      <point x="125" y="0" type="line"/>
      <point x="40" y="0" type="line"/>
      <point x="40" y="95" type="line"/>
      <point x="125" y="95" type="line"/>
    </contour>
  </outline>
</glyph>
<glyph name="less" format="1">
  <advance width="290"/>
  <unicode hex="003C"/>
  <outline>
    <contour>
      <point x="251" y="122" type="line"/>
      <point x="30" y="287" type="line"/>
      <point x="30" y="362" type="line"/>
      <point x="251" y="525" type="line"/>
      <point x="251" y="430" type="line"/>
      <point x="105" y="325" type="line"/>
      <point x="251" y="219" type="line"/>
    </contour>
  </outline>
</glyph>
<glyph name="equal" format="1">
  <advance width="402"/>
  <unicode hex="003D"/>
  <outline>
    <contour>
      <point x="347" y="388" type="line"/>
      <point x="55" y="388" type="line"/>
      <point x="55" y="474" type="line"/>
      <point x="347" y="474" type="line"/>
    </contour>
    <contour>
      <point x="347" y="192" type="line"/>
      <point x="55" y="192" type="line"/>
      <point x="55" y="278" type="line"/>
      <point x="347" y="278" type="line"/>
    </contour>
  </outline>
</glyph>
<glyph name="greater" format="1">
  <advance width="290"/>
  <unicode hex="003E"/>
  <outline>
    <contour>
      <point x="260" y="287" type="line"/>
      <point x="39" y="124" type="line"/>
      <point x="39" y="219" type="line"/>
      <point x="185" y="324" type="line"/>
      <point x="39" y="430" type="line"/>
      <point x="39" y="527" type="line"/>
      <point x="260" y="362" type="line"/>
    </contour>
  </outline>
</glyph>
<glyph name="question" format="1">
  <advance width="308"/>
  <unicode hex="003F"/>
  <outline>
    <contour>
      <point x="282" y="592" type="curve" smooth="yes"/>
      <point x="282" y="520"/>
      <point x="249" y="441"/>
      <point x="217" y="376" type="curve" smooth="yes"/>
      <point x="193" y="326"/>
      <point x="176" y="266"/>
      <point x="176" y="208" type="curve" smooth="yes"/>
      <point x="176" y="150" type="line"/>
      <point x="99" y="150" type="line"/>
      <point x="99" y="195" type="line" smooth="yes"/>
      <point x="99" y="283"/>
      <point x="118" y="353"/>
      <point x="142" y="406" type="curve" smooth="yes"/>
      <point x="166" y="460"/>
      <point x="188" y="520"/>
      <point x="188" y="583" type="curve" smooth="yes"/>
      <point x="188" y="625"/>
      <point x="173" y="653"/>
      <point x="140" y="653" type="curve" smooth="yes"/>
      <point x="104" y="653"/>
      <point x="87" y="629"/>
      <point x="76" y="597" type="curve"/>
      <point x="12" y="647" type="line"/>
      <point x="28" y="698"/>
      <point x="74" y="742"/>
      <point x="140" y="742" type="curve" smooth="yes"/>
      <point x="228" y="742"/>
      <point x="282" y="676"/>
    </contour>
    <contour>
      <point x="180" y="0" type="line"/>
      <point x="95" y="0" type="line"/>
      <point x="95" y="95" type="line"/>
      <point x="180" y="95" type="line"/>
    </contour>
  </outline>
</glyph>
<glyph name="A" format="1">
  <advance width="488"/>
  <unicode hex="0041"/>
  <outline>
    <contour>
      <point x="475" y="0" type="line"/>
      <point x="383" y="0" type="line"/>
      <point x="336" y="158" type="line"/>
      <point x="150" y="158" type="line"/>
      <point x="103" y="0" type="line"/>
      <point x="13" y="0" type="line"/>
      <point x="233" y="742" type="line"/>
      <point x="255" y="742" type="line"/>
    </contour>
    <contour>
      <point x="310" y="236" type="line"/>
      <point x="254" y="455" type="line" smooth="yes"/>
      <point x="250" y="472"/>
      <point x="244" y="502"/>
      <point x="244" y="502" type="curve"/>
      <point x="244" y="500"/>
      <point x="240" y="473"/>
      <point x="235" y="455" type="curve" smooth="yes"/>
      <point x="176" y="236" type="line"/>
    </contour>
  </outline>
</glyph>
<glyph name="B" format="1">
  <advance width="422"/>
  <unicode hex="0042"/>
  <outline>
    <contour>
      <point x="391" y="207" type="curve" smooth="yes"/>
      <point x="391" y="81"/>
      <point x="304" y="0"/>
      <point x="159" y="0" type="curve" smooth="yes"/>
      <point x="57" y="0" type="line"/>
      <point x="57" y="730" type="line"/>
      <point x="163" y="730" type="line" smooth="yes"/>
      <point x="283" y="730"/>
      <point x="373" y="654"/>
      <point x="373" y="538" type="curve" smooth="yes"/>
      <point x="373" y="455"/>
      <point x="337" y="397"/>
      <point x="269" y="375" type="curve"/>
      <point x="333" y="360"/>
      <point x="391" y="292"/>
    </contour>
    <contour>
      <point x="283" y="538" type="curve" smooth="yes"/>
      <point x="283" y="601"/>
      <point x="225" y="645"/>
      <point x="169" y="645" type="curve" smooth="yes"/>
      <point x="147" y="645" type="line"/>
      <point x="147" y="409" type="line"/>
      <point x="172" y="409" type="line" smooth="yes"/>
      <point x="247" y="409"/>
      <point x="283" y="465"/>
    </contour>
    <contour>
      <point x="297" y="204" type="curve" smooth="yes"/>
      <point x="297" y="285"/>
      <point x="235" y="324"/>
      <point x="175" y="324" type="curve" smooth="yes"/>
      <point x="147" y="324" type="line"/>
      <point x="147" y="85" type="line"/>
      <point x="171" y="85" type="line" smooth="yes"/>
      <point x="258" y="85"/>
      <point x="297" y="131"/>
    </contour>
  </outline>
</glyph>
<glyph name="C" format="1">
  <advance width="390"/>
  <unicode hex="0043"/>
  <outline>
    <contour>
      <point x="364" y="18" type="line"/>
      <point x="334" y="-2"/>
      <point x="300" y="-12"/>
      <point x="268" y="-12" type="curve" smooth="yes"/>
      <point x="94" y="-12"/>
      <point x="32" y="189"/>
      <point x="32" y="372" type="curve" smooth="yes"/>
      <point x="32" y="549"/>
      <point x="100" y="742"/>
      <point x="257" y="742" type="curve" smooth="yes"/>
      <point x="299" y="742"/>
      <point x="333" y="730"/>
      <point x="362" y="711" type="curve"/>
      <point x="326" y="636" type="line"/>
      <point x="310" y="646"/>
      <point x="288" y="653"/>
      <point x="261" y="653" type="curve" smooth="yes"/>
      <point x="168" y="653"/>
      <point x="126" y="503"/>
      <point x="126" y="372" type="curve" smooth="yes"/>
      <point x="126" y="261"/>
      <point x="148" y="77"/>
      <point x="266" y="77" type="curve" smooth="yes"/>
      <point x="297" y="77"/>
      <point x="311" y="84"/>
      <point x="328" y="95" type="curve"/>
    </contour>
  </outline>
</glyph>
<glyph name="D" format="1">
  <advance width="469"/>
  <unicode hex="0044"/>
  <outline>
    <contour>
      <point x="437" y="372" type="curve" smooth="yes"/>
      <point x="437" y="144"/>
      <point x="342" y="0"/>
      <point x="160" y="0" type="curve" smooth="yes"/>
      <point x="57" y="0" type="line"/>
      <point x="57" y="730" type="line"/>
      <point x="163" y="730" type="line" smooth="yes"/>
      <point x="359" y="730"/>
      <point x="437" y="566"/>
    </contour>
    <contour>
      <point x="343" y="372" type="curve" smooth="yes"/>
      <point x="343" y="530"/>
      <point x="288" y="645"/>
      <point x="170" y="645" type="curve" smooth="yes"/>
      <point x="147" y="645" type="line"/>
      <point x="147" y="85" type="line"/>
      <point x="175" y="85" type="line" smooth="yes"/>
      <point x="293" y="85"/>
      <point x="343" y="200"/>
    </contour>
  </outline>
</glyph>
<glyph name="E" format="1">
  <advance width="392"/>
  <unicode hex="0045"/>
  <outline>
    <contour>
      <point x="351" y="0" type="line"/>
      <point x="57" y="0" type="line"/>
      <point x="57" y="730" type="line"/>
      <point x="342" y="730" type="line"/>
      <point x="342" y="645" type="line"/>
      <point x="147" y="645" type="line"/>
      <point x="147" y="401" type="line"/>
      <point x="330" y="401" type="line"/>
      <point x="330" y="316" type="line"/>
      <point x="147" y="316" type="line"/>
      <point x="147" y="85" type="line"/>
      <point x="351" y="85" type="line"/>
    </contour>
  </outline>
</glyph>
<glyph name="F" format="1">
  <advance width="350"/>
  <unicode hex="0046"/>
  <outline>
    <contour>
      <point x="314" y="645" type="line"/>
      <point x="147" y="645" type="line"/>
      <point x="147" y="399" type="line"/>
      <point x="302" y="399" type="line"/>
      <point x="302" y="314" type="line"/>
      <point x="147" y="314" type="line"/>
      <point x="147" y="0" type="line"/>
      <point x="57" y="0" type="line"/>
      <point x="57" y="730" type="line"/>
      <point x="314" y="730" type="line"/>
    </contour>
  </outline>
</glyph>
<glyph name="G" format="1">
  <advance width="471"/>
  <unicode hex="0047"/>
  <outline>
    <contour>
      <point x="426" y="66" type="line"/>
      <point x="389" y="21"/>
      <point x="339" y="-12"/>
      <point x="269" y="-12" type="curve" smooth="yes"/>
      <point x="94" y="-12"/>
      <point x="32" y="200"/>
      <point x="32" y="375" type="curve" smooth="yes"/>
      <point x="32" y="539"/>
      <point x="92" y="742"/>
      <point x="259" y="742" type="curve" smooth="yes"/>
      <point x="328" y="742"/>
      <point x="361" y="727"/>
      <point x="397" y="693" type="curve"/>
      <point x="340" y="625" type="line"/>
      <point x="318" y="646"/>
      <point x="293" y="653"/>
      <point x="261" y="653" type="curve" smooth="yes"/>
      <point x="163" y="653"/>
      <point x="126" y="497"/>
      <point x="126" y="373" type="curve" smooth="yes"/>
      <point x="126" y="248"/>
      <point x="159" y="77"/>
      <point x="265" y="77" type="curve" smooth="yes"/>
      <point x="301" y="77"/>
      <point x="321" y="86"/>
      <point x="336" y="101" type="curve"/>
      <point x="336" y="313" type="line"/>
      <point x="245" y="313" type="line"/>
      <point x="245" y="398" type="line"/>
      <point x="426" y="398" type="line"/>
    </contour>
  </outline>
</glyph>
<glyph name="H" format="1">
  <advance width="494"/>
  <unicode hex="0048"/>
  <outline>
    <contour>
      <point x="437" y="0" type="line"/>
      <point x="347" y="0" type="line"/>
      <point x="347" y="325" type="line"/>
      <point x="147" y="325" type="line"/>
      <point x="147" y="0" type="line"/>
      <point x="57" y="0" type="line"/>
      <point x="57" y="730" type="line"/>
      <point x="147" y="730" type="line"/>
      <point x="147" y="410" type="line"/>
      <point x="347" y="410" type="line"/>
      <point x="347" y="730" type="line"/>
      <point x="437" y="730" type="line"/>
    </contour>
  </outline>
</glyph>
<glyph name="J" format="1">
  <advance width="243"/>
  <unicode hex="004A"/>
  <outline>
    <contour>
      <point x="191" y="159" type="line" smooth="yes"/>
      <point x="191" y="37"/>
      <point x="105" y="-12"/>
      <point x="25" y="-12" type="curve"/>
      <point x="25" y="73" type="line"/>
      <point x="64" y="73"/>
      <point x="101" y="102"/>
      <point x="101" y="153" type="curve" smooth="yes"/>
      <point x="101" y="730" type="line"/>
      <point x="191" y="730" type="line"/>
    </contour>
  </outline>
</glyph>
<glyph name="K" format="1">
  <advance width="451"/>
  <unicode hex="004B"/>
  <outline>
    <contour>
      <point x="435" y="730" type="line"/>
      <point x="232" y="429" type="line"/>
      <point x="430" y="0" type="line"/>
      <point x="335" y="0" type="line"/>
      <point x="170" y="353" type="line"/>
      <point x="147" y="321" type="line"/>
      <point x="147" y="0" type="line"/>
      <point x="57" y="0" type="line"/>
      <point x="57" y="730" type="line"/>
      <point x="147" y="730" type="line"/>
      <point x="147" y="452" type="line"/>
      <point x="337" y="730" type="line"/>
    </contour>
  </outline>
</glyph>
<glyph name="L" format="1">
  <advance width="359"/>
  <unicode hex="004C"/>
  <outline>
    <contour>
      <point x="336" y="0" type="line"/>
      <point x="57" y="0" type="line"/>
      <point x="57" y="730" type="line"/>
      <point x="147" y="730" type="line"/>
      <point x="147" y="85" type="line"/>
      <point x="336" y="85" type="line"/>
    </contour>
  </outline>
</glyph>
<glyph name="M" format="1">
  <advance width="584"/>
  <unicode hex="004D"/>
  <outline>
    <contour>
      <point x="527" y="0" type="line"/>
      <point x="437" y="0" type="line"/>
      <point x="437" y="463" type="line" smooth="yes"/>
      <point x="437" y="482"/>
      <point x="441" y="511"/>
      <point x="441" y="511" type="curve"/>
      <point x="310" y="197" type="line"/>
      <point x="274" y="197" type="line"/>
      <point x="143" y="511" type="line"/>
      <point x="143" y="511"/>
      <point x="147" y="482"/>
      <point x="147" y="463" type="curve" smooth="yes"/>
      <point x="147" y="0" type="line"/>
      <point x="57" y="0" type="line"/>
      <point x="57" y="730" type="line"/>
      <point x="133" y="730" type="line"/>
      <point x="278" y="393" type="line" smooth="yes"/>
      <point x="285" y="376"/>
      <point x="293" y="348"/>
      <point x="293" y="348" type="curve"/>
      <point x="293" y="348"/>
      <point x="301" y="376"/>
      <point x="308" y="393" type="curve" smooth="yes"/>
      <point x="453" y="730" type="line"/>
      <point x="527" y="730" type="line"/>
    </contour>
  </outline>
</glyph>
<glyph name="N" format="1">
  <advance width="501"/>
  <unicode hex="004E"/>
  <outline>
    <contour>
      <point x="444" y="0" type="line"/>
      <point x="374" y="0" type="line"/>
      <point x="144" y="491" type="line"/>
      <point x="144" y="491"/>
      <point x="147" y="458"/>
      <point x="147" y="443" type="curve" smooth="yes"/>
      <point x="147" y="0" type="line"/>
      <point x="57" y="0" type="line"/>
      <point x="57" y="730" type="line"/>
      <point x="127" y="730" type="line"/>
      <point x="357" y="235" type="line"/>
      <point x="357" y="235"/>
      <point x="354" y="268"/>
      <point x="354" y="283" type="curve" smooth="yes"/>
      <point x="354" y="730" type="line"/>
      <point x="444" y="730" type="line"/>
    </contour>
  </outline>
</glyph>
<glyph name="O" format="1">
  <advance width="520"/>
  <unicode hex="004F"/>
  <outline>
    <contour>
      <point x="488" y="368" type="curve" smooth="yes"/>
      <point x="488" y="198"/>
      <point x="434" y="-12"/>
      <point x="260" y="-12" type="curve" smooth="yes"/>
      <point x="90" y="-12"/>
      <point x="32" y="198"/>
      <point x="32" y="368" type="curve" smooth="yes"/>
      <point x="32" y="542"/>
      <point x="90" y="742"/>
      <point x="260" y="742" type="curve" smooth="yes"/>
      <point x="442" y="742"/>
      <point x="488" y="542"/>
    </contour>
    <contour>
      <point x="394" y="368" type="curve" smooth="yes"/>
      <point x="394" y="501"/>
      <point x="373" y="653"/>
      <point x="260" y="653" type="curve" smooth="yes"/>
      <point x="150" y="653"/>
      <point x="126" y="501"/>
      <point x="126" y="368" type="curve" smooth="yes"/>
      <point x="126" y="242"/>
      <point x="150" y="77"/>
      <point x="260" y="77" type="curve" smooth="yes"/>
      <point x="373" y="77"/>
      <point x="394" y="242"/>
    </contour>
  </outline>
</glyph>
<glyph name="P" format="1">
  <advance width="404"/>
  <unicode hex="0050"/>
  <outline>
    <contour>
      <point x="383" y="506" type="curve" smooth="yes"/>
      <point x="383" y="392"/>
      <point x="299" y="287"/>
      <point x="167" y="287" type="curve" smooth="yes"/>
      <point x="147" y="287" type="line"/>
      <point x="147" y="0" type="line"/>
      <point x="57" y="0" type="line"/>
      <point x="57" y="730" type="line"/>
      <point x="165" y="730" type="line" smooth="yes"/>
      <point x="274" y="730"/>
      <point x="383" y="662"/>
    </contour>
    <contour>
      <point x="289" y="506" type="curve" smooth="yes"/>
      <point x="289" y="601"/>
      <point x="238" y="645"/>
      <point x="167" y="645" type="curve" smooth="yes"/>
      <point x="147" y="645" type="line"/>
      <point x="147" y="372" type="line"/>
      <point x="167" y="372" type="line" smooth="yes"/>
      <point x="242" y="372"/>
      <point x="289" y="428"/>
    </contour>
  </outline>
</glyph>
<glyph name="Q" format="1">
  <advance width="520"/>
  <unicode hex="0051"/>
  <outline>
    <contour>
      <point x="488" y="368" type="curve" smooth="yes"/>
      <point x="488" y="264"/>
      <point x="469" y="157"/>
      <point x="421" y="82" type="curve"/>
      <point x="439" y="71"/>
      <point x="459" y="61"/>
      <point x="479" y="55" type="curve"/>
      <point x="416" y="-17" type="line"/>
      <point x="401" y="-10"/>
      <point x="382" y="4"/>
      <point x="364" y="20" type="curve"/>
      <point x="335" y="0"/>
      <point x="301" y="-12"/>
      <point x="260" y="-12" type="curve" smooth="yes"/>
      <point x="90" y="-12"/>
      <point x="32" y="198"/>
      <point x="32" y="368" type="curve" smooth="yes"/>
      <point x="32" y="542"/>
      <point x="90" y="742"/>
      <point x="260" y="742" type="curve" smooth="yes"/>
      <point x="442" y="742"/>
      <point x="488" y="542"/>
    </contour>
    <contour>
      <point x="394" y="368" type="curve" smooth="yes"/>
      <point x="394" y="501"/>
      <point x="373" y="653"/>
      <point x="260" y="653" type="curve" smooth="yes"/>
      <point x="150" y="653"/>
      <point x="126" y="501"/>
      <point x="126" y="368" type="curve" smooth="yes"/>
      <point x="126" y="242"/>
      <point x="150" y="77"/>
      <point x="260" y="77" type="curve" smooth="yes"/>
      <point x="276" y="77"/>
      <point x="290" y="80"/>
      <point x="303" y="86" type="curve"/>
      <point x="289" y="104"/>
      <point x="278" y="121"/>
      <point x="272" y="134" type="curve"/>
      <point x="322" y="192" type="line"/>
      <point x="330" y="175"/>
      <point x="340" y="159"/>
      <point x="355" y="142" type="curve"/>
      <point x="384" y="194"/>
      <point x="394" y="289"/>
    </contour>
  </outline>
</glyph>
<glyph name="R" format="1">
  <advance width="430"/>
  <unicode hex="0052"/>
  <outline>
    <contour>
      <point x="412" y="0" type="line"/>
      <point x="314" y="0" type="line"/>
      <point x="147" y="335" type="line"/>
      <point x="147" y="0" type="line"/>
      <point x="57" y="0" type="line"/>
      <point x="57" y="730" type="line"/>
      <point x="172" y="730" type="line" smooth="yes"/>
      <point x="300" y="730"/>
      <point x="383" y="642"/>
      <point x="383" y="522" type="curve" smooth="yes"/>
      <point x="383" y="410"/>
      <point x="323" y="343"/>
      <point x="249" y="321" type="curve"/>
    </contour>
    <contour>
      <point x="289" y="522" type="curve" smooth="yes"/>
      <point x="289" y="602"/>
      <point x="247" y="645"/>
      <point x="172" y="645" type="curve" smooth="yes"/>
      <point x="147" y="645" type="line"/>
      <point x="147" y="376" type="line"/>
      <point x="172" y="376" type="line" smooth="yes"/>
      <point x="249" y="376"/>
      <point x="289" y="429"/>
    </contour>
  </outline>
</glyph>
<glyph name="S" format="1">
  <advance width="383"/>
  <unicode hex="0053"/>
  <outline>
    <contour>
      <point x="350" y="171" type="curve" smooth="yes"/>
      <point x="350" y="69"/>
      <point x="281" y="-12"/>
      <point x="182" y="-12" type="curve" smooth="yes"/>
      <point x="116" y="-12"/>
      <point x="62" y="21"/>
      <point x="33" y="67" type="curve"/>
      <point x="94" y="128" type="line"/>
      <point x="115" y="99"/>
      <point x="148" y="77"/>
      <point x="184" y="77" type="curve" smooth="yes"/>
      <point x="238" y="77"/>
      <point x="258" y="119"/>
      <point x="258" y="165" type="curve" smooth="yes"/>
      <point x="258" y="235"/>
      <point x="203" y="290"/>
      <point x="148" y="349" type="curve" smooth="yes"/>
      <point x="92" y="409"/>
      <point x="36" y="472"/>
      <point x="36" y="559" type="curve" smooth="yes"/>
      <point x="36" y="650"/>
      <point x="98" y="742"/>
      <point x="200" y="742" type="curve" smooth="yes"/>
      <point x="265" y="742"/>
      <point x="308" y="713"/>
      <point x="336" y="673" type="curve"/>
      <point x="273" y="615" type="line"/>
      <point x="250" y="640"/>
      <point x="228" y="653"/>
      <point x="200" y="653" type="curve" smooth="yes"/>
      <point x="150" y="653"/>
      <point x="128" y="613"/>
      <point x="128" y="564" type="curve" smooth="yes"/>
      <point x="128" y="507"/>
      <point x="175" y="459"/>
      <point x="226" y="406" type="curve" smooth="yes"/>
      <point x="285" y="343"/>
      <point x="350" y="272"/>
    </contour>
  </outline>
</glyph>
<glyph name="T" format="1">
  <advance width="362"/>
  <unicode hex="0054"/>
  <outline>
    <contour>
      <point x="340" y="645" type="line"/>
      <point x="226" y="645" type="line"/>
      <point x="226" y="0" type="line"/>
      <point x="136" y="0" type="line"/>
      <point x="136" y="645" type="line"/>
      <point x="22" y="645" type="line"/>
      <point x="22" y="730" type="line"/>
      <point x="340" y="730" type="line"/>
    </contour>
  </outline>
</glyph>
<glyph name="U" format="1">
  <advance width="494"/>
  <unicode hex="0055"/>
  <outline>
    <contour>
      <point x="442" y="186" type="line" smooth="yes"/>
      <point x="442" y="78"/>
      <point x="352" y="-12"/>
      <point x="247" y="-12" type="curve" smooth="yes"/>
      <point x="142" y="-12"/>
      <point x="52" y="78"/>
      <point x="52" y="186" type="curve" smooth="yes"/>
      <point x="52" y="730" type="line"/>
      <point x="143" y="730" type="line"/>
      <point x="143" y="213" type="line" smooth="yes"/>
      <point x="143" y="128"/>
      <point x="182" y="77"/>
      <point x="247" y="77" type="curve" smooth="yes"/>
      <point x="312" y="77"/>
      <point x="353" y="128"/>
      <point x="353" y="213" type="curve" smooth="yes"/>
      <point x="353" y="730" type="line"/>
      <point x="442" y="730" type="line"/>
    </contour>
  </outline>
</glyph>
<glyph name="V" format="1">
  <advance width="472"/>
  <unicode hex="0056"/>
  <outline>
    <contour>
      <point x="457" y="730" type="line"/>
      <point x="270" y="0" type="line"/>
      <point x="202" y="0" type="line"/>
      <point x="15" y="730" type="line"/>
      <point x="108" y="730" type="line"/>
      <point x="222" y="270" type="line" smooth="yes"/>
      <point x="228" y="246"/>
      <point x="237" y="185"/>
      <point x="237" y="185" type="curve"/>
      <point x="237" y="185"/>
      <point x="246" y="246"/>
      <point x="252" y="270" type="curve" smooth="yes"/>
      <point x="366" y="730" type="line"/>
    </contour>
  </outline>
</glyph>
<glyph name="W" format="1">
  <advance width="698"/>
  <unicode hex="0057"/>
  <outline>
    <contour>
      <point x="681" y="730" type="line"/>
      <point x="532" y="0" type="line"/>
      <point x="473" y="0" type="line"/>
      <point x="360" y="428" type="line" smooth="yes"/>
      <point x="356" y="443"/>
      <point x="350" y="488"/>
      <point x="350" y="488" type="curve"/>
      <point x="350" y="488"/>
      <point x="344" y="446"/>
      <point x="339" y="428" type="curve" smooth="yes"/>
      <point x="225" y="0" type="line"/>
      <point x="166" y="0" type="line"/>
      <point x="17" y="730" type="line"/>
      <point x="110" y="730" type="line"/>
      <point x="197" y="286" type="line" smooth="yes"/>
      <point x="200" y="270"/>
      <point x="205" y="225"/>
      <point x="205" y="225" type="curve"/>
      <point x="205" y="225"/>
      <point x="210" y="270"/>
      <point x="214" y="286" type="curve" smooth="yes"/>
      <point x="327" y="730" type="line"/>
      <point x="371" y="730" type="line"/>
      <point x="486" y="286" type="line" smooth="yes"/>
      <point x="490" y="270"/>
      <point x="495" y="225"/>
      <point x="495" y="225" type="curve"/>
      <point x="495" y="225"/>
      <point x="499" y="269"/>
      <point x="502" y="286" type="curve" smooth="yes"/>
      <point x="590" y="730" type="line"/>
    </contour>
  </outline>
</glyph>
<glyph name="X" format="1">
  <advance width="466"/>
  <unicode hex="0058"/>
  <outline>
    <contour>
      <point x="449" y="0" type="line"/>
      <point x="357" y="0" type="line"/>
      <point x="250" y="252" type="line" smooth="yes"/>
      <point x="244" y="267"/>
      <point x="233" y="299"/>
      <point x="233" y="299" type="curve"/>
      <point x="233" y="299"/>
      <point x="221" y="267"/>
      <point x="215" y="252" type="curve" smooth="yes"/>
      <point x="108" y="0" type="line"/>
      <point x="18" y="0" type="line"/>
      <point x="186" y="394" type="line"/>
      <point x="40" y="730" type="line"/>
      <point x="136" y="730" type="line"/>
      <point x="216" y="538" type="line" smooth="yes"/>
      <point x="221" y="526"/>
      <point x="233" y="491"/>
      <point x="233" y="491" type="curve"/>
      <point x="233" y="491"/>
      <point x="246" y="527"/>
      <point x="251" y="538" type="curve" smooth="yes"/>
      <point x="331" y="730" type="line"/>
      <point x="425" y="730" type="line"/>
      <point x="280" y="394" type="line"/>
    </contour>
  </outline>
</glyph>
<glyph name="Y" format="1">
  <advance width="450"/>
  <unicode hex="0059"/>
  <outline>
    <contour>
      <point x="435" y="730" type="line"/>
      <point x="270" y="345" type="line"/>
      <point x="270" y="0" type="line"/>
      <point x="180" y="0" type="line"/>
      <point x="180" y="345" type="line"/>
      <point x="15" y="730" type="line"/>
      <point x="111" y="730" type="line"/>
      <point x="211" y="490" type="line" smooth="yes"/>
      <point x="214" y="482"/>
      <point x="226" y="447"/>
      <point x="226" y="447" type="curve"/>
      <point x="226" y="447"/>
      <point x="237" y="481"/>
      <point x="242" y="492" type="curve" smooth="yes"/>
      <point x="341" y="730" type="line"/>
    </contour>
  </outline>
</glyph>
<glyph name="Z" format="1">
  <advance width="431"/>
  <unicode hex="005A"/>
  <outline>
    <contour>
      <point x="411" y="730" type="line"/>
      <point x="139" y="85" type="line"/>
      <point x="392" y="85" type="line"/>
      <point x="392" y="0" type="line"/>
      <point x="14" y="0" type="line"/>
      <point x="286" y="645" type="line"/>
      <point x="50" y="645" type="line"/>
      <point x="50" y="730" type="line"/>
    </contour>
  </outline>
</glyph>
<glyph name="bracketleft" format="1">
  <advance width="275"/>
  <unicode hex="005B"/>
  <outline>
    <contour>
      <point x="235" y="-179" type="line"/>
      <point x="65" y="-179" type="line"/>
      <point x="65" y="730" type="line"/>
      <point x="235" y="730" type="line"/>
      <point x="235" y="651" type="line"/>
      <point x="150" y="651" type="line"/>
      <point x="150" y="-100" type="line"/>
      <point x="235" y="-100" type="line"/>
    </contour>
  </outline>
</glyph>
<glyph name="backslash" format="1">
  <advance width="272"/>
  <unicode hex="005C"/>
  <outline>
    <contour>
      <point x="242" y="0" type="line"/>
      <point x="165" y="0" type="line"/>
      <point x="30" y="730" type="line"/>
      <point x="107" y="730" type="line"/>
    </contour>
  </outline>
</glyph>
<glyph name="bracketright" format="1">
  <advance width="275"/>
  <unicode hex="005D"/>
  <outline>
    <contour>
      <point x="210" y="-179" type="line"/>
      <point x="40" y="-179" type="line"/>
      <point x="40" y="-100" type="line"/>
      <point x="125" y="-100" type="line"/>
      <point x="125" y="651" type="line"/>
      <point x="40" y="651" type="line"/>
      <point x="40" y="730" type="line"/>
      <point x="210" y="730" type="line"/>
    </contour>
  </outline>
</glyph>
<glyph name="asciicircum" format="1">
  <advance width="413"/>
  <unicode hex="005E"/>
  <outline>
    <contour>
      <point x="388" y="419" type="line"/>
      <point x="291" y="419" type="line"/>
      <point x="205" y="635" type="line"/>
      <point x="120" y="419" type="line"/>
      <point x="25" y="419" type="line"/>
      <point x="168" y="730" type="line"/>
      <point x="243" y="730" type="line"/>
    </contour>
  </outline>
</glyph>
<glyph name="underscore" format="1">
  <advance width="380"/>
  <unicode hex="005F"/>
  <outline>
    <contour>
      <point x="380" y="-129" type="line"/>
      <point x="0" y="-129" type="line"/>
      <point x="0" y="-63" type="line"/>
      <point x="380" y="-63" type="line"/>
    </contour>
  </outline>
</glyph>
<glyph name="grave" format="1">
  <advance width="350"/>
  <unicode hex="0060"/>
  <outline>
    <contour>
      <point x="263" y="489" type="line"/>
      <point x="180" y="489" type="line"/>
      <point x="101" y="626" type="line"/>
      <point x="184" y="626" type="line"/>
    </contour>
  </outline>
</glyph>
<glyph name="a" format="1">
  <advance width="350"/>
  <unicode hex="0061"/>
  <outline>
    <contour>
      <point x="310" y="0" type="line"/>
      <point x="224" y="0" type="line"/>
      <point x="224" y="23" type="line"/>
      <point x="201" y="-1"/>
      <point x="175" y="-12"/>
      <point x="142" y="-12" type="curve" smooth="yes"/>
      <point x="71" y="-12"/>
      <point x="21" y="61"/>
      <point x="21" y="127" type="curve" smooth="yes"/>
      <point x="21" y="205"/>
      <point x="91" y="276"/>
      <point x="189" y="276" type="curve" smooth="yes"/>
      <point x="224" y="276" type="line"/>
      <point x="224" y="305" type="line" smooth="yes"/>
      <point x="224" y="332"/>
      <point x="207" y="349"/>
      <point x="167" y="349" type="curve" smooth="yes"/>
      <point x="131" y="349"/>
      <point x="99" y="338"/>
      <point x="72" y="321" type="curve"/>
      <point x="39" y="392" type="line"/>
      <point x="83" y="418"/>
      <point x="115" y="428"/>
      <point x="164" y="428" type="curve" smooth="yes"/>
      <point x="247" y="428"/>
      <point x="310" y="397"/>
      <point x="310" y="312" type="curve" smooth="yes"/>
    </contour>
    <contour>
      <point x="224" y="95" type="curve"/>
      <point x="224" y="204" type="line"/>
      <point x="202" y="204" type="line" smooth="yes"/>
      <point x="156" y="204"/>
      <point x="109" y="181"/>
      <point x="109" y="131" type="curve" smooth="yes"/>
      <point x="109" y="101"/>
      <point x="123" y="67"/>
      <point x="159" y="67" type="curve" smooth="yes"/>
      <point x="188" y="67"/>
      <point x="209" y="77"/>
    </contour>
  </outline>
</glyph>
<glyph name="b" format="1">
  <advance width="364"/>
  <unicode hex="0062"/>
  <outline>
    <contour>
      <point x="339" y="216" type="curve" smooth="yes"/>
      <point x="339" y="102"/>
      <point x="302" y="-12"/>
      <point x="206" y="-12" type="curve" smooth="yes"/>
      <point x="173" y="-12"/>
      <point x="141" y="9"/>
      <point x="131" y="30" type="curve"/>
      <point x="131" y="0" type="line"/>
      <point x="45" y="0" type="line"/>
      <point x="45" y="730" type="line"/>
      <point x="131" y="730" type="line"/>
      <point x="131" y="388" type="line"/>
      <point x="151" y="416"/>
      <point x="177" y="428"/>
      <point x="205" y="428" type="curve" smooth="yes"/>
      <point x="307" y="428"/>
      <point x="339" y="312"/>
    </contour>
    <contour>
      <point x="251" y="219" type="curve" smooth="yes"/>
      <point x="251" y="276"/>
      <point x="242" y="353"/>
      <point x="191" y="353" type="curve" smooth="yes"/>
      <point x="139" y="353"/>
      <point x="131" y="268"/>
      <point x="131" y="217" type="curve" smooth="yes"/>
      <point x="131" y="154"/>
      <point x="140" y="63"/>
      <point x="191" y="63" type="curve" smooth="yes"/>
      <point x="246" y="63"/>
      <point x="251" y="159"/>
    </contour>
  </outline>
</glyph>
<glyph name="c" format="1">
  <advance width="316"/>
  <unicode hex="0063"/>
  <outline>
    <contour>
      <point x="303" y="71" type="line"/>
      <point x="275" y="18"/>
      <point x="240" y="-12"/>
      <point x="174" y="-12" type="curve" smooth="yes"/>
      <point x="72" y="-12"/>
      <point x="25" y="89"/>
      <point x="25" y="207" type="curve" smooth="yes"/>
      <point x="25" y="328"/>
      <point x="71" y="428"/>
      <point x="174" y="428" type="curve" smooth="yes"/>
      <point x="244" y="428"/>
      <point x="272" y="398"/>
      <point x="292" y="362" type="curve"/>
      <point x="231" y="313" type="line"/>
      <point x="218" y="337"/>
      <point x="200" y="349"/>
      <point x="175" y="349" type="curve" smooth="yes"/>
      <point x="120" y="349"/>
      <point x="113" y="264"/>
      <point x="113" y="207" type="curve" smooth="yes"/>
      <point x="113" y="154"/>
      <point x="122" y="67"/>
      <point x="176" y="67" type="curve" smooth="yes"/>
      <point x="201" y="67"/>
      <point x="228" y="89"/>
      <point x="241" y="116" type="curve"/>
    </contour>
  </outline>
</glyph>
<glyph name="d" format="1">
  <advance width="364"/>
  <unicode hex="0064"/>
  <outline>
    <contour>
      <point x="319" y="0" type="line"/>
      <point x="233" y="0" type="line"/>
      <point x="233" y="30" type="line"/>
      <point x="223" y="9"/>
      <point x="191" y="-12"/>
      <point x="158" y="-12" type="curve" smooth="yes"/>
      <point x="62" y="-12"/>
      <point x="25" y="102"/>
      <point x="25" y="216" type="curve" smooth="yes"/>
      <point x="25" y="312"/>
      <point x="57" y="428"/>
      <point x="159" y="428" type="curve" smooth="yes"/>
      <point x="187" y="428"/>
      <point x="213" y="416"/>
      <point x="233" y="388" type="curve"/>
      <point x="233" y="730" type="line"/>
      <point x="319" y="730" type="line"/>
    </contour>
    <contour>
      <point x="233" y="218" type="curve" smooth="yes"/>
      <point x="233" y="269"/>
      <point x="225" y="353"/>
      <point x="173" y="353" type="curve" smooth="yes"/>
      <point x="122" y="353"/>
      <point x="113" y="273"/>
      <point x="113" y="216" type="curve" smooth="yes"/>
      <point x="113" y="156"/>
      <point x="118" y="63"/>
      <point x="173" y="63" type="curve" smooth="yes"/>
      <point x="224" y="63"/>
      <point x="233" y="155"/>
    </contour>
  </outline>
</glyph>
<glyph name="e" format="1">
  <advance width="341"/>
  <unicode hex="0065"/>
  <outline>
    <contour>
      <point x="316" y="57" type="line"/>
      <point x="280" y="12"/>
      <point x="237" y="-12"/>
      <point x="182" y="-12" type="curve" smooth="yes"/>
      <point x="80" y="-12"/>
      <point x="25" y="87"/>
      <point x="25" y="211" type="curve" smooth="yes"/>
      <point x="25" y="327"/>
      <point x="68" y="428"/>
      <point x="172" y="428" type="curve" smooth="yes"/>
      <point x="268" y="428"/>
      <point x="316" y="331"/>
      <point x="316" y="244" type="curve" smooth="yes"/>
      <point x="316" y="188" type="line"/>
      <point x="110" y="188" type="line"/>
      <point x="113" y="125"/>
      <point x="130" y="67"/>
      <point x="182" y="67" type="curve" smooth="yes"/>
      <point x="215" y="67"/>
      <point x="242" y="87"/>
      <point x="263" y="110" type="curve"/>
    </contour>
    <contour>
      <point x="230" y="255" type="line"/>
      <point x="230" y="269" type="line" smooth="yes"/>
      <point x="230" y="310"/>
      <point x="207" y="349"/>
      <point x="172" y="349" type="curve" smooth="yes"/>
      <point x="134" y="349"/>
      <point x="111" y="310"/>
      <point x="110" y="255" type="curve"/>
    </contour>
  </outline>
</glyph>
<glyph name="f" format="1">
  <advance width="208"/>
  <unicode hex="0066"/>
  <outline>
    <contour>
      <point x="187" y="339" type="line"/>
      <point x="147" y="339" type="line"/>
      <point x="147" y="0" type="line"/>
      <point x="61" y="0" type="line"/>
      <point x="61" y="339" type="line"/>
      <point x="17" y="339" type="line"/>
      <point x="17" y="416" type="line"/>
      <point x="61" y="416" type="line"/>
      <point x="61" y="580" type="line" smooth="yes"/>
      <point x="61" y="684"/>
      <point x="115" y="730"/>
      <point x="187" y="730" type="curve"/>
      <point x="187" y="644" type="line"/>
      <point x="161" y="644"/>
      <point x="147" y="622"/>
      <point x="147" y="575" type="curve" smooth="yes"/>
      <point x="147" y="416" type="line"/>
      <point x="187" y="416" type="line"/>
    </contour>
  </outline>
</glyph>
<glyph name="g" format="1">
  <advance width="364"/>
  <unicode hex="0067"/>
  <outline>
    <contour>
      <point x="319" y="-23" type="line" smooth="yes"/>
      <point x="319" y="-130"/>
      <point x="250" y="-179"/>
      <point x="172" y="-179" type="curve" smooth="yes"/>
      <point x="121" y="-179"/>
      <point x="76" y="-157"/>
      <point x="41" y="-124" type="curve"/>
      <point x="86" y="-67" type="line"/>
      <point x="108" y="-86"/>
      <point x="139" y="-104"/>
      <point x="172" y="-104" type="curve" smooth="yes"/>
      <point x="209" y="-104"/>
      <point x="233" y="-82"/>
      <point x="233" y="-31" type="curve" smooth="yes"/>
      <point x="233" y="28" type="line"/>
      <point x="213" y="0"/>
      <point x="187" y="-12"/>
      <point x="159" y="-12" type="curve" smooth="yes"/>
      <point x="57" y="-12"/>
      <point x="25" y="104"/>
      <point x="25" y="200" type="curve" smooth="yes"/>
      <point x="25" y="314"/>
      <point x="62" y="428"/>
      <point x="158" y="428" type="curve" smooth="yes"/>
      <point x="191" y="428"/>
      <point x="223" y="407"/>
      <point x="233" y="386" type="curve"/>
      <point x="233" y="416" type="line"/>
      <point x="319" y="416" type="line"/>
    </contour>
    <contour>
      <point x="233" y="202" type="curve" smooth="yes"/>
      <point x="233" y="265"/>
      <point x="224" y="353"/>
      <point x="173" y="353" type="curve" smooth="yes"/>
      <point x="118" y="353"/>
      <point x="113" y="260"/>
      <point x="113" y="200" type="curve" smooth="yes"/>
      <point x="113" y="143"/>
      <point x="122" y="63"/>
      <point x="173" y="63" type="curve" smooth="yes"/>
      <point x="225" y="63"/>
      <point x="233" y="151"/>
    </contour>
  </outline>
</glyph>
<glyph name="i" format="1">
  <advance width="176"/>
  <unicode hex="0069"/>
  <outline>
    <contour>
      <point x="131" y="519" type="line"/>
      <point x="45" y="519" type="line"/>
      <point x="45" y="628" type="line"/>
      <point x="131" y="628" type="line"/>
    </contour>
    <contour>
      <point x="131" y="0" type="line"/>
      <point x="45" y="0" type="line"/>
      <point x="45" y="416" type="line"/>
      <point x="131" y="416" type="line"/>
    </contour>
  </outline>
</glyph>
<glyph name="j" format="1">
  <advance width="176"/>
  <unicode hex="006A"/>
  <outline>
    <contour>
      <point x="131" y="519" type="line"/>
      <point x="45" y="519" type="line"/>
      <point x="45" y="628" type="line"/>
      <point x="131" y="628" type="line"/>
    </contour>
    <contour>
      <point x="131" y="-57" type="line" smooth="yes"/>
      <point x="131" y="-117"/>
      <point x="96" y="-179"/>
      <point x="5" y="-179" type="curve"/>
      <point x="5" y="-96" type="line"/>
      <point x="34" y="-96"/>
      <point x="45" y="-80"/>
      <point x="45" y="-50" type="curve" smooth="yes"/>
      <point x="45" y="416" type="line"/>
      <point x="131" y="416" type="line"/>
    </contour>
  </outline>
</glyph>
<glyph name="k" format="1">
  <advance width="356"/>
  <unicode hex="006B"/>
  <outline>
    <contour>
      <point x="345" y="0" type="line"/>
      <point x="249" y="0" type="line"/>
      <point x="163" y="183" type="line"/>
      <point x="131" y="137" type="line"/>
      <point x="131" y="0" type="line"/>
      <point x="45" y="0" type="line"/>
      <point x="45" y="730" type="line"/>
      <point x="131" y="730" type="line"/>
      <point x="131" y="261" type="line"/>
      <point x="233" y="416" type="line"/>
      <point x="329" y="416" type="line"/>
      <point x="219" y="258" type="line"/>
    </contour>
  </outline>
</glyph>
<glyph name="l" format="1">
  <advance width="176"/>
  <unicode hex="006C"/>
  <outline>
    <contour>
      <point x="131" y="0" type="line"/>
      <point x="45" y="0" type="line"/>
      <point x="45" y="730" type="line"/>
      <point x="131" y="730" type="line"/>
    </contour>
  </outline>
</glyph>
<glyph name="m" format="1">
  <advance width="523"/>
  <unicode hex="006D"/>
  <outline>
    <contour>
      <point x="483" y="0" type="line"/>
      <point x="397" y="0" type="line"/>
      <point x="397" y="306" type="line" smooth="yes"/>
      <point x="397" y="331"/>
      <point x="384" y="353"/>
      <point x="356" y="353" type="curve" smooth="yes"/>
      <point x="326" y="353"/>
      <point x="307" y="323"/>
      <point x="307" y="291" type="curve" smooth="yes"/>
      <point x="307" y="0" type="line"/>
      <point x="221" y="0" type="line"/>
      <point x="221" y="306" type="line" smooth="yes"/>
      <point x="221" y="331"/>
      <point x="208" y="353"/>
      <point x="180" y="353" type="curve" smooth="yes"/>
      <point x="150" y="353"/>
      <point x="131" y="323"/>
      <point x="131" y="291" type="curve" smooth="yes"/>
      <point x="131" y="0" type="line"/>
      <point x="45" y="0" type="line"/>
      <point x="45" y="416" type="line"/>
      <point x="131" y="416" type="line"/>
      <point x="131" y="387" type="line"/>
      <point x="147" y="412"/>
      <point x="174" y="428"/>
      <point x="205" y="428" type="curve" smooth="yes"/>
      <point x="252" y="428"/>
      <point x="279" y="406"/>
      <point x="290" y="374" type="curve"/>
      <point x="307" y="405"/>
      <point x="342" y="428"/>
      <point x="378" y="428" type="curve" smooth="yes"/>
      <point x="442" y="428"/>
      <point x="483" y="382"/>
      <point x="483" y="312" type="curve" smooth="yes"/>
    </contour>
  </outline>
</glyph>
<glyph name="n" format="1">
  <advance width="362"/>
  <unicode hex="006E"/>
  <outline>
    <contour>
      <point x="322" y="0" type="line"/>
      <point x="236" y="0" type="line"/>
      <point x="236" y="277" type="line" smooth="yes"/>
      <point x="236" y="320"/>
      <point x="223" y="353"/>
      <point x="191" y="353" type="curve" smooth="yes"/>
      <point x="147" y="353"/>
      <point x="131" y="313"/>
      <point x="131" y="273" type="curve" smooth="yes"/>
      <point x="131" y="0" type="line"/>
      <point x="45" y="0" type="line"/>
      <point x="45" y="416" type="line"/>
      <point x="131" y="416" type="line"/>
      <point x="131" y="390" type="line"/>
      <point x="149" y="413"/>
      <point x="178" y="428"/>
      <point x="212" y="428" type="curve" smooth="yes"/>
      <point x="275" y="428"/>
      <point x="322" y="376"/>
      <point x="322" y="308" type="curve" smooth="yes"/>
    </contour>
  </outline>
</glyph>
<glyph name="o" format="1">
  <advance width="354"/>
  <unicode hex="006F"/>
  <outline>
    <contour>
      <point x="329" y="208" type="curve" smooth="yes"/>
      <point x="329" y="103"/>
      <point x="287" y="-12"/>
      <point x="177" y="-12" type="curve" smooth="yes"/>
      <point x="67" y="-12"/>
      <point x="25" y="103"/>
      <point x="25" y="208" type="curve" smooth="yes"/>
      <point x="25" y="320"/>
      <point x="67" y="428"/>
      <point x="177" y="428" type="curve" smooth="yes"/>
      <point x="287" y="428"/>
      <point x="329" y="320"/>
    </contour>
    <contour>
      <point x="241" y="208" type="curve" smooth="yes"/>
      <point x="241" y="279"/>
      <point x="229" y="349"/>
      <point x="177" y="349" type="curve" smooth="yes"/>
      <point x="125" y="349"/>
      <point x="113" y="279"/>
      <point x="113" y="208" type="curve" smooth="yes"/>
      <point x="113" y="137"/>
      <point x="125" y="67"/>
      <point x="177" y="67" type="curve" smooth="yes"/>
      <point x="229" y="67"/>
      <point x="241" y="137"/>
    </contour>
  </outline>
</glyph>
<glyph name="p" format="1">
  <advance width="364"/>
  <unicode hex="0070"/>
  <outline>
    <contour>
      <point x="339" y="200" type="curve" smooth="yes"/>
      <point x="339" y="104"/>
      <point x="307" y="-12"/>
      <point x="205" y="-12" type="curve" smooth="yes"/>
      <point x="177" y="-12"/>
      <point x="151" y="0"/>
      <point x="131" y="28" type="curve"/>
      <point x="131" y="-179" type="line"/>
      <point x="45" y="-179" type="line"/>
      <point x="45" y="416" type="line"/>
      <point x="131" y="416" type="line"/>
      <point x="131" y="386" type="line"/>
      <point x="141" y="407"/>
      <point x="173" y="428"/>
      <point x="206" y="428" type="curve" smooth="yes"/>
      <point x="302" y="428"/>
      <point x="339" y="314"/>
    </contour>
    <contour>
      <point x="251" y="200" type="curve" smooth="yes"/>
      <point x="251" y="260"/>
      <point x="246" y="353"/>
      <point x="191" y="353" type="curve" smooth="yes"/>
      <point x="140" y="353"/>
      <point x="131" y="261"/>
      <point x="131" y="198" type="curve" smooth="yes"/>
      <point x="131" y="147"/>
      <point x="139" y="63"/>
      <point x="191" y="63" type="curve" smooth="yes"/>
      <point x="242" y="63"/>
      <point x="251" y="143"/>
    </contour>
  </outline>
</glyph>
<glyph name="q" format="1">
  <advance width="364"/>
  <unicode hex="0071"/>
  <outline>
    <contour>
      <point x="319" y="-179" type="line"/>
      <point x="233" y="-179" type="line"/>
      <point x="233" y="28" type="line"/>
      <point x="213" y="0"/>
      <point x="187" y="-12"/>
      <point x="159" y="-12" type="curve" smooth="yes"/>
      <point x="57" y="-12"/>
      <point x="25" y="104"/>
      <point x="25" y="200" type="curve" smooth="yes"/>
      <point x="25" y="314"/>
      <point x="62" y="428"/>
      <point x="158" y="428" type="curve" smooth="yes"/>
      <point x="191" y="428"/>
      <point x="223" y="407"/>
      <point x="233" y="386" type="curve"/>
      <point x="233" y="416" type="line"/>
      <point x="319" y="416" type="line"/>
    </contour>
    <contour>
      <point x="233" y="202" type="curve" smooth="yes"/>
      <point x="233" y="265"/>
      <point x="224" y="353"/>
      <point x="173" y="353" type="curve" smooth="yes"/>
      <point x="118" y="353"/>
      <point x="113" y="260"/>
      <point x="113" y="200" type="curve" smooth="yes"/>
      <point x="113" y="143"/>
      <point x="122" y="63"/>
      <point x="173" y="63" type="curve" smooth="yes"/>
      <point x="225" y="63"/>
      <point x="233" y="151"/>
    </contour>
  </outline>
</glyph>
<glyph name="r" format="1">
  <advance width="246"/>
  <unicode hex="0072"/>
  <outline>
    <contour>
      <point x="229" y="336" type="line"/>
      <point x="180" y="336"/>
      <point x="131" y="284"/>
      <point x="131" y="211" type="curve" smooth="yes"/>
      <point x="131" y="0" type="line"/>
      <point x="45" y="0" type="line"/>
      <point x="45" y="416" type="line"/>
      <point x="131" y="416" type="line"/>
      <point x="131" y="370" type="line"/>
      <point x="146" y="396"/>
      <point x="183" y="428"/>
      <point x="229" y="428" type="curve"/>
    </contour>
  </outline>
</glyph>
<glyph name="s" format="1">
  <advance width="283"/>
  <unicode hex="0073"/>
  <outline>
    <contour>
      <point x="263" y="108" type="curve" smooth="yes"/>
      <point x="263" y="32"/>
      <point x="203" y="-12"/>
      <point x="136" y="-12" type="curve" smooth="yes"/>
      <point x="92" y="-12"/>
      <point x="55" y="3"/>
      <point x="25" y="38" type="curve"/>
      <point x="72" y="96" type="line"/>
      <point x="87" y="82"/>
      <point x="109" y="67"/>
      <point x="136" y="67" type="curve" smooth="yes"/>
      <point x="162" y="67"/>
      <point x="175" y="84"/>
      <point x="175" y="102" type="curve" smooth="yes"/>
      <point x="175" y="139"/>
      <point x="134" y="167"/>
      <point x="95" y="202" type="curve" smooth="yes"/>
      <point x="60" y="233"/>
      <point x="28" y="270"/>
      <point x="28" y="324" type="curve" smooth="yes"/>
      <point x="28" y="387"/>
      <point x="82" y="428"/>
      <point x="145" y="428" type="curve" smooth="yes"/>
      <point x="196" y="428"/>
      <point x="223" y="413"/>
      <point x="247" y="388" type="curve"/>
      <point x="201" y="327" type="line"/>
      <point x="188" y="339"/>
      <point x="170" y="349"/>
      <point x="152" y="349" type="curve" smooth="yes"/>
      <point x="133" y="349"/>
      <point x="116" y="339"/>
      <point x="116" y="321" type="curve" smooth="yes"/>
      <point x="116" y="295"/>
      <point x="149" y="268"/>
      <point x="183" y="237" type="curve" smooth="yes"/>
      <point x="222" y="202"/>
      <point x="263" y="161"/>
    </contour>
  </outline>
</glyph>
<glyph name="t" format="1">
  <advance width="217"/>
  <unicode hex="0074"/>
  <outline>
    <contour>
      <point x="190" y="-8" type="line"/>
      <point x="97" y="-8"/>
      <point x="56" y="25"/>
      <point x="56" y="125" type="curve" smooth="yes"/>
      <point x="56" y="339" type="line"/>
      <point x="15" y="339" type="line"/>
      <point x="15" y="416" type="line"/>
      <point x="56" y="416" type="line"/>
      <point x="56" y="618" type="line"/>
      <point x="142" y="618" type="line"/>
      <point x="142" y="416" type="line"/>
      <point x="190" y="416" type="line"/>
      <point x="190" y="339" type="line"/>
      <point x="142" y="339" type="line"/>
      <point x="142" y="135" type="line" smooth="yes"/>
      <point x="142" y="97"/>
      <point x="157" y="77"/>
      <point x="190" y="77" type="curve"/>
    </contour>
  </outline>
</glyph>
<glyph name="u" format="1">
  <advance width="362"/>
  <unicode hex="0075"/>
  <outline>
    <contour>
      <point x="317" y="0" type="line"/>
      <point x="231" y="0" type="line"/>
      <point x="231" y="26" type="line"/>
      <point x="213" y="3"/>
      <point x="184" y="-12"/>
      <point x="150" y="-12" type="curve" smooth="yes"/>
      <point x="87" y="-12"/>
      <point x="40" y="40"/>
      <point x="40" y="108" type="curve" smooth="yes"/>
      <point x="40" y="416" type="line"/>
      <point x="126" y="416" type="line"/>
      <point x="126" y="139" type="line" smooth="yes"/>
      <point x="126" y="96"/>
      <point x="139" y="63"/>
      <point x="171" y="63" type="curve" smooth="yes"/>
      <point x="215" y="63"/>
      <point x="231" y="103"/>
      <point x="231" y="143" type="curve" smooth="yes"/>
      <point x="231" y="416" type="line"/>
      <point x="317" y="416" type="line"/>
    </contour>
  </outline>
</glyph>
<glyph name="v" format="1">
  <advance width="334"/>
  <unicode hex="0076"/>
  <outline>
    <contour>
      <point x="328" y="416" type="line"/>
      <point x="167" y="-17" type="line"/>
      <point x="6" y="416" type="line"/>
      <point x="94" y="416" type="line"/>
      <point x="156" y="231" type="line" smooth="yes"/>
      <point x="161" y="216"/>
      <point x="169" y="184"/>
      <point x="169" y="184" type="curve"/>
      <point x="169" y="184"/>
      <point x="177" y="217"/>
      <point x="182" y="231" type="curve" smooth="yes"/>
      <point x="242" y="416" type="line"/>
    </contour>
  </outline>
</glyph>
<glyph name="w" format="1">
  <advance width="470"/>
  <unicode hex="0077"/>
  <outline>
    <contour>
      <point x="461" y="416" type="line"/>
      <point x="347" y="-17" type="line"/>
      <point x="244" y="208" type="line" smooth="yes"/>
      <point x="240" y="216"/>
      <point x="235" y="238"/>
      <point x="235" y="238" type="curve"/>
      <point x="235" y="238"/>
      <point x="230" y="218"/>
      <point x="225" y="206" type="curve" smooth="yes"/>
      <point x="125" y="-17" type="line"/>
      <point x="9" y="416" type="line"/>
      <point x="96" y="416" type="line"/>
      <point x="141" y="221" type="line" smooth="yes"/>
      <point x="143" y="214"/>
      <point x="147" y="190"/>
      <point x="147" y="190" type="curve"/>
      <point x="147" y="190"/>
      <point x="152" y="211"/>
      <point x="155" y="219" type="curve" smooth="yes"/>
      <point x="235" y="433" type="line"/>
      <point x="316" y="223" type="line" smooth="yes"/>
      <point x="319" y="215"/>
      <point x="325" y="190"/>
      <point x="325" y="190" type="curve"/>
      <point x="325" y="190"/>
      <point x="328" y="214"/>
      <point x="330" y="221" type="curve" smooth="yes"/>
      <point x="376" y="416" type="line"/>
    </contour>
  </outline>
</glyph>
<glyph name="x" format="1">
  <advance width="345"/>
  <unicode hex="0078"/>
  <outline>
    <contour>
      <point x="334" y="0" type="line"/>
      <point x="242" y="0" type="line"/>
      <point x="180" y="117" type="line" smooth="yes"/>
      <point x="176" y="125"/>
      <point x="172" y="135"/>
      <point x="172" y="135" type="curve"/>
      <point x="172" y="135"/>
      <point x="168" y="125"/>
      <point x="164" y="117" type="curve" smooth="yes"/>
      <point x="101" y="0" type="line"/>
      <point x="11" y="0" type="line"/>
      <point x="127" y="220" type="line"/>
      <point x="27" y="416" type="line"/>
      <point x="117" y="416" type="line"/>
      <point x="164" y="319" type="line" smooth="yes"/>
      <point x="169" y="309"/>
      <point x="172" y="299"/>
      <point x="172" y="299" type="curve"/>
      <point x="172" y="299"/>
      <point x="176" y="310"/>
      <point x="180" y="319" type="curve" smooth="yes"/>
      <point x="228" y="416" type="line"/>
      <point x="316" y="416" type="line"/>
      <point x="217" y="220" type="line"/>
    </contour>
  </outline>
</glyph>
<glyph name="y" format="1">
  <advance width="329"/>
  <unicode hex="0079"/>
  <outline>
    <contour>
      <point x="320" y="416" type="line"/>
      <point x="186" y="-89" type="line" smooth="yes"/>
      <point x="171" y="-146"/>
      <point x="128" y="-176"/>
      <point x="75" y="-176" type="curve" smooth="yes"/>
      <point x="60" y="-176"/>
      <point x="48" y="-173"/>
      <point x="34" y="-167" type="curve"/>
      <point x="34" y="-89" type="line"/>
      <point x="47" y="-93"/>
      <point x="60" y="-93"/>
      <point x="73" y="-93" type="curve" smooth="yes"/>
      <point x="85" y="-93"/>
      <point x="110" y="-88"/>
      <point x="117" y="-56" type="curve" smooth="yes"/>
      <point x="127" y="-12" type="line"/>
      <point x="9" y="416" type="line"/>
      <point x="98" y="416" type="line"/>
      <point x="162" y="166" type="line" smooth="yes"/>
      <point x="165" y="156"/>
      <point x="167" y="142"/>
      <point x="167" y="142" type="curve"/>
      <point x="167" y="142"/>
      <point x="169" y="156"/>
      <point x="172" y="166" type="curve" smooth="yes"/>
      <point x="236" y="416" type="line"/>
    </contour>
  </outline>
</glyph>
<glyph name="z" format="1">
  <advance width="323"/>
  <unicode hex="007A"/>
  <outline>
    <contour>
      <point x="306" y="416" type="line"/>
      <point x="138" y="77" type="line"/>
      <point x="296" y="77" type="line"/>
      <point x="296" y="0" type="line"/>
      <point x="15" y="0" type="line"/>
      <point x="178" y="339" type="line"/>
      <point x="40" y="339" type="line"/>
      <point x="40" y="416" type="line"/>
    </contour>
  </outline>
</glyph>
<glyph name="braceleft" format="1">
  <advance width="290"/>
  <unicode hex="007B"/>
  <outline>
    <contour>
      <point x="260" y="-179" type="line"/>
      <point x="117" y="-133"/>
      <point x="95" y="-59"/>
      <point x="95" y="88" type="curve" smooth="yes"/>
      <point x="95" y="172"/>
      <point x="95" y="247"/>
      <point x="25" y="247" type="curve"/>
      <point x="25" y="323" type="line"/>
      <point x="95" y="323"/>
      <point x="95" y="398"/>
      <point x="95" y="482" type="curve" smooth="yes"/>
      <point x="95" y="630"/>
      <point x="117" y="703"/>
      <point x="260" y="749" type="curve"/>
      <point x="260" y="689" type="line"/>
      <point x="185" y="639"/>
      <point x="180" y="595"/>
      <point x="180" y="496" type="curve" smooth="yes"/>
      <point x="180" y="411"/>
      <point x="177" y="319"/>
      <point x="108" y="285" type="curve"/>
      <point x="177" y="251"/>
      <point x="180" y="159"/>
      <point x="180" y="74" type="curve" smooth="yes"/>
      <point x="180" y="-25"/>
      <point x="185" y="-69"/>
      <point x="260" y="-119" type="curve"/>
    </contour>
  </outline>
</glyph>
<glyph name="bar" format="1">
  <advance width="199"/>
  <unicode hex="007C"/>
  <outline>
    <contour>
      <point x="142" y="-179" type="line"/>
      <point x="57" y="-179" type="line"/>
      <point x="57" y="730" type="line"/>
      <point x="142" y="730" type="line"/>
    </contour>
  </outline>
</glyph>
<glyph name="braceright" format="1">
  <advance width="290"/>
  <unicode hex="007D"/>
  <outline>
    <contour>
      <point x="265" y="247" type="line"/>
      <point x="195" y="247"/>
      <point x="195" y="172"/>
      <point x="195" y="88" type="curve" smooth="yes"/>
      <point x="195" y="-60"/>
      <point x="173" y="-133"/>
      <point x="30" y="-179" type="curve"/>
      <point x="30" y="-119" type="line"/>
      <point x="105" y="-69"/>
      <point x="110" y="-25"/>
      <point x="110" y="74" type="curve" smooth="yes"/>
      <point x="110" y="159"/>
      <point x="113" y="251"/>
      <point x="182" y="285" type="curve"/>
      <point x="113" y="319"/>
      <point x="110" y="411"/>
      <point x="110" y="496" type="curve" smooth="yes"/>
      <point x="110" y="595"/>
      <point x="105" y="639"/>
      <point x="30" y="689" type="curve"/>
      <point x="30" y="749" type="line"/>
      <point x="173" y="703"/>
      <point x="195" y="629"/>
      <point x="195" y="482" type="curve" smooth="yes"/>
      <point x="195" y="398"/>
      <point x="195" y="323"/>
      <point x="265" y="323" type="curve"/>
    </contour>
  </outline>
</glyph>
<glyph name="asciitilde" format="1">
  <advance width="500"/>
  <unicode hex="007E"/>
  <outline>
    <contour>
      <point x="460" y="439" type="line"/>
      <point x="455" y="345"/>
      <point x="429" y="282"/>
      <point x="337" y="282" type="curve" smooth="yes"/>
      <point x="294" y="282"/>
      <point x="261" y="305"/>
      <point x="232" y="327" type="curve" smooth="yes"/>
      <point x="207" y="346"/>
      <point x="185" y="363"/>
      <point x="162" y="363" type="curve" smooth="yes"/>
      <point x="137" y="363"/>
      <point x="127" y="337"/>
      <point x="124" y="285" type="curve"/>
      <point x="40" y="285" type="line"/>
      <point x="45" y="379"/>
      <point x="71" y="442"/>
      <point x="163" y="442" type="curve" smooth="yes"/>
      <point x="203" y="442"/>
      <point x="234" y="423"/>
      <point x="260" y="403" type="curve" smooth="yes"/>
      <point x="289" y="382"/>
      <point x="312" y="361"/>
      <point x="338" y="361" type="curve" smooth="yes"/>
      <point x="363" y="361"/>
      <point x="373" y="388"/>
      <point x="376" y="439" type="curve"/>
    </contour>
  </outline>
</glyph>
<glyph name="exclamdown" format="1">
  <advance width="204"/>
  <unicode hex="00A1"/>
  <outline>
    <contour>
      <point x="147" y="626" type="line"/>
      <point x="57" y="626" type="line"/>
      <point x="57" y="730" type="line"/>
      <point x="147" y="730" type="line"/>
    </contour>
    <contour>
      <point x="147" y="0" type="line"/>
      <point x="57" y="0" type="line"/>
      <point x="57" y="340" type="line"/>
      <point x="79" y="579" type="line"/>
      <point x="125" y="579" type="line"/>
      <point x="147" y="340" type="line"/>
    </contour>
  </outline>
</glyph>
<glyph name="cent" format="1">
  <advance width="323"/>
  <unicode hex="00A2"/>
  <outline>
    <contour>
      <point x="303" y="71" type="line"/>
      <point x="278" y="25"/>
      <point x="249" y="-4"/>
      <point x="197" y="-11" type="curve"/>
      <point x="197" y="-79" type="line"/>
      <point x="152" y="-79" type="line"/>
      <point x="152" y="-10" type="line"/>
      <point x="65" y="3"/>
      <point x="25" y="98"/>
      <point x="25" y="207" type="curve" smooth="yes"/>
      <point x="25" y="319"/>
      <point x="64" y="413"/>
      <point x="152" y="426" type="curve"/>
      <point x="152" y="495" type="line"/>
      <point x="197" y="495" type="line"/>
      <point x="197" y="427" type="line"/>
      <point x="251" y="421"/>
      <point x="274" y="394"/>
      <point x="292" y="362" type="curve"/>
      <point x="231" y="313" type="line"/>
      <point x="218" y="337"/>
      <point x="200" y="349"/>
      <point x="175" y="349" type="curve" smooth="yes"/>
      <point x="120" y="349"/>
      <point x="113" y="264"/>
      <point x="113" y="207" type="curve" smooth="yes"/>
      <point x="113" y="154"/>
      <point x="122" y="67"/>
      <point x="176" y="67" type="curve" smooth="yes"/>
      <point x="201" y="67"/>
      <point x="228" y="89"/>
      <point x="241" y="116" type="curve"/>
    </contour>
  </outline>
</glyph>
<glyph name="sterling" format="1">
  <advance width="453"/>
  <unicode hex="00A3"/>
  <outline>
    <contour>
      <point x="436" y="175" type="line"/>
      <point x="442" y="99"/>
      <point x="419" y="-12"/>
      <point x="310" y="-12" type="curve" smooth="yes"/>
      <point x="273" y="-12"/>
      <point x="245" y="10"/>
      <point x="221" y="35" type="curve"/>
      <point x="197" y="5"/>
      <point x="164" y="-12"/>
      <point x="122" y="-12" type="curve" smooth="yes"/>
      <point x="58" y="-12"/>
      <point x="10" y="18"/>
      <point x="10" y="80" type="curve" smooth="yes"/>
      <point x="10" y="140"/>
      <point x="52" y="172"/>
      <point x="115" y="172" type="curve" smooth="yes"/>
      <point x="142" y="172"/>
      <point x="164" y="163"/>
      <point x="183" y="151" type="curve"/>
      <point x="184" y="161"/>
      <point x="184" y="171"/>
      <point x="184" y="183" type="curve" smooth="yes"/>
      <point x="184" y="229"/>
      <point x="169" y="270"/>
      <point x="149" y="309" type="curve"/>
      <point x="56" y="309" type="line"/>
      <point x="56" y="356" type="line"/>
      <point x="124" y="356" type="line"/>
      <point x="88" y="418"/>
      <point x="50" y="479"/>
      <point x="50" y="552" type="curve" smooth="yes"/>
      <point x="50" y="668"/>
      <point x="117" y="742"/>
      <point x="231" y="742" type="curve" smooth="yes"/>
      <point x="358" y="742"/>
      <point x="419" y="664"/>
      <point x="410" y="541" type="curve"/>
      <point x="314" y="541" type="line"/>
      <point x="319" y="599"/>
      <point x="296" y="656"/>
      <point x="233" y="656" type="curve" smooth="yes"/>
      <point x="186" y="656"/>
      <point x="148" y="628"/>
      <point x="148" y="558" type="curve" smooth="yes"/>
      <point x="148" y="490"/>
      <point x="195" y="431"/>
      <point x="231" y="356" type="curve"/>
      <point x="363" y="356" type="line"/>
      <point x="363" y="309" type="line"/>
      <point x="250" y="309" type="line"/>
      <point x="261" y="276"/>
      <point x="269" y="240"/>
      <point x="269" y="199" type="curve" smooth="yes"/>
      <point x="269" y="160"/>
      <point x="264" y="124"/>
      <point x="253" y="93" type="curve"/>
      <point x="269" y="80"/>
      <point x="286" y="71"/>
      <point x="304" y="71" type="curve" smooth="yes"/>
      <point x="351" y="71"/>
      <point x="353" y="138"/>
      <point x="353" y="175" type="curve"/>
    </contour>
    <contour>
      <point x="173" y="86" type="curve"/>
      <point x="158" y="100"/>
      <point x="142" y="110"/>
      <point x="124" y="110" type="curve" smooth="yes"/>
      <point x="92" y="110"/>
      <point x="81" y="99"/>
      <point x="81" y="80" type="curve" smooth="yes"/>
      <point x="81" y="62"/>
      <point x="97" y="48"/>
      <point x="124" y="48" type="curve" smooth="yes"/>
      <point x="149" y="48"/>
      <point x="164" y="60"/>
    </contour>
  </outline>
</glyph>
<glyph name="yen" format="1">
  <advance width="448"/>
  <unicode hex="00A5"/>
  <outline>
    <contour>
      <point x="434" y="730" type="line"/>
      <point x="269" y="345" type="line"/>
      <point x="269" y="271" type="line"/>
      <point x="374" y="271" type="line"/>
      <point x="374" y="224" type="line"/>
      <point x="269" y="224" type="line"/>
      <point x="269" y="163" type="line"/>
      <point x="374" y="163" type="line"/>
      <point x="374" y="116" type="line"/>
      <point x="269" y="116" type="line"/>
      <point x="269" y="0" type="line"/>
      <point x="179" y="0" type="line"/>
      <point x="179" y="116" type="line"/>
      <point x="74" y="116" type="line"/>
      <point x="74" y="163" type="line"/>
      <point x="179" y="163" type="line"/>
      <point x="179" y="224" type="line"/>
      <point x="74" y="224" type="line"/>
      <point x="74" y="271" type="line"/>
      <point x="179" y="271" type="line"/>
      <point x="179" y="345" type="line"/>
      <point x="14" y="730" type="line"/>
      <point x="110" y="730" type="line"/>
      <point x="210" y="490" type="line" smooth="yes"/>
      <point x="214" y="480"/>
      <point x="225" y="447"/>
      <point x="225" y="447" type="curve"/>
      <point x="225" y="447"/>
      <point x="236" y="480"/>
      <point x="241" y="492" type="curve" smooth="yes"/>
      <point x="340" y="730" type="line"/>
    </contour>
  </outline>
</glyph>
<glyph name="brokenbar" format="1">
  <advance width="199"/>
  <unicode hex="00A6"/>
  <outline>
    <contour>
      <point x="57" y="351" type="line"/>
      <point x="57" y="730" type="line"/>
      <point x="142" y="730" type="line"/>
      <point x="142" y="351" type="line"/>
    </contour>
    <contour>
      <point x="142" y="200" type="line"/>
      <point x="142" y="-179" type="line"/>
      <point x="57" y="-179" type="line"/>
      <point x="57" y="200" type="line"/>
    </contour>
  </outline>
</glyph>
<glyph name="section" format="1">
  <advance width="494"/>
  <unicode hex="00A7"/>
  <outline>
    <contour>
      <point x="464" y="285" type="curve" smooth="yes"/>
      <point x="464" y="221"/>
      <point x="423" y="142"/>
      <point x="363" y="95" type="curve"/>
      <point x="403" y="63"/>
      <point x="416" y="26"/>
      <point x="416" y="-25" type="curve" smooth="yes"/>
      <point x="416" y="-127"/>
      <point x="331" y="-179"/>
      <point x="237" y="-179" type="curve" smooth="yes"/>
      <point x="165" y="-179"/>
      <point x="119" y="-165"/>
      <point x="75" y="-135" type="curve"/>
      <point x="121" y="-66" type="line"/>
      <point x="154" y="-89"/>
      <point x="188" y="-99"/>
      <point x="240" y="-99" type="curve" smooth="yes"/>
      <point x="288" y="-99"/>
      <point x="320" y="-72"/>
      <point x="320" y="-35" type="curve" smooth="yes"/>
      <point x="320" y="16"/>
      <point x="311" y="37"/>
      <point x="200" y="76" type="curve" smooth="yes"/>
      <point x="94" y="113"/>
      <point x="30" y="159"/>
      <point x="30" y="278" type="curve" smooth="yes"/>
      <point x="30" y="342"/>
      <point x="71" y="421"/>
      <point x="131" y="467" type="curve"/>
      <point x="91" y="500"/>
      <point x="78" y="537"/>
      <point x="78" y="588" type="curve" smooth="yes"/>
      <point x="78" y="690"/>
      <point x="163" y="742"/>
      <point x="257" y="742" type="curve" smooth="yes"/>
      <point x="329" y="742"/>
      <point x="375" y="728"/>
      <point x="419" y="698" type="curve"/>
      <point x="373" y="629" type="line"/>
      <point x="340" y="652"/>
      <point x="306" y="662"/>
      <point x="254" y="662" type="curve" smooth="yes"/>
      <point x="206" y="662"/>
      <point x="174" y="635"/>
      <point x="174" y="598" type="curve" smooth="yes"/>
      <point x="174" y="547"/>
      <point x="183" y="526"/>
      <point x="294" y="487" type="curve" smooth="yes"/>
      <point x="400" y="450"/>
      <point x="464" y="404"/>
    </contour>
    <contour>
      <point x="369" y="284" type="curve" smooth="yes"/>
      <point x="369" y="350"/>
      <point x="334" y="377"/>
      <point x="253" y="406" type="curve" smooth="yes"/>
      <point x="234" y="413"/>
      <point x="218" y="419"/>
      <point x="202" y="426" type="curve"/>
      <point x="154" y="392"/>
      <point x="125" y="341"/>
      <point x="125" y="279" type="curve" smooth="yes"/>
      <point x="125" y="213"/>
      <point x="160" y="186"/>
      <point x="241" y="157" type="curve" smooth="yes"/>
      <point x="260" y="150"/>
      <point x="276" y="144"/>
      <point x="291" y="137" type="curve"/>
      <point x="340" y="171"/>
      <point x="369" y="222"/>
    </contour>
  </outline>
</glyph>
<glyph name="dieresis" format="1">
  <advance width="350"/>
  <unicode hex="00A8"/>
  <outline>
    <contour>
      <point x="277" y="489" type="line"/>
      <point x="199" y="489" type="line"/>
      <point x="199" y="590" type="line"/>
      <point x="277" y="590" type="line"/>
    </contour>
    <contour>
      <point x="151" y="489" type="line"/>
      <point x="73" y="489" type="line"/>
      <point x="73" y="590" type="line"/>
      <point x="151" y="590" type="line"/>
    </contour>
  </outline>
</glyph>
<glyph name="copyright" format="1">
  <advance width="844"/>
  <unicode hex="00A9"/>
  <outline>
    <contour>
      <point x="799" y="365" type="curve" smooth="yes"/>
      <point x="799" y="157"/>
      <point x="630" y="-12"/>
      <point x="422" y="-12" type="curve" smooth="yes"/>
      <point x="214" y="-12"/>
      <point x="45" y="157"/>
      <point x="45" y="365" type="curve" smooth="yes"/>
      <point x="45" y="573"/>
      <point x="214" y="742"/>
      <point x="422" y="742" type="curve" smooth="yes"/>
      <point x="630" y="742"/>
      <point x="799" y="573"/>
    </contour>
    <contour>
      <point x="745" y="364" type="curve" smooth="yes"/>
      <point x="745" y="542"/>
      <point x="600" y="687"/>
      <point x="422" y="687" type="curve" smooth="yes"/>
      <point x="244" y="687"/>
      <point x="99" y="542"/>
      <point x="99" y="364" type="curve" smooth="yes"/>
      <point x="99" y="186"/>
      <point x="244" y="42"/>
      <point x="422" y="42" type="curve" smooth="yes"/>
      <point x="600" y="42"/>
      <point x="745" y="186"/>
    </contour>
    <contour>
      <point x="597" y="223" type="line"/>
      <point x="563" y="177"/>
      <point x="501" y="141"/>
      <point x="424" y="141" type="curve" smooth="yes"/>
      <point x="317" y="141"/>
      <point x="209" y="225"/>
      <point x="209" y="375" type="curve" smooth="yes"/>
      <point x="209" y="492"/>
      <point x="300" y="594"/>
      <point x="426" y="594" type="curve" smooth="yes"/>
      <point x="505" y="594"/>
      <point x="553" y="567"/>
      <point x="588" y="525" type="curve"/>
      <point x="541" y="483" type="line"/>
      <point x="511" y="514"/>
      <point x="475" y="530"/>
      <point x="427" y="530" type="curve" smooth="yes"/>
      <point x="343" y="530"/>
      <point x="276" y="464"/>
      <point x="276" y="375" type="curve" smooth="yes"/>
      <point x="276" y="261"/>
      <point x="358" y="205"/>
      <point x="425" y="205" type="curve" smooth="yes"/>
      <point x="467" y="205"/>
      <point x="514" y="222"/>
      <point x="551" y="263" type="curve"/>
    </contour>
  </outline>
</glyph>
<glyph name="ordfeminine" format="1">
  <advance width="315"/>
  <unicode hex="00AA"/>
  <outline>
    <contour>
      <point x="266" y="400" type="line"/>
      <point x="197" y="400" type="line"/>
      <point x="197" y="418" type="line"/>
      <point x="179" y="399"/>
      <point x="158" y="390"/>
      <point x="131" y="390" type="curve" smooth="yes"/>
      <point x="75" y="390"/>
      <point x="35" y="448"/>
      <point x="35" y="502" type="curve" smooth="yes"/>
      <point x="35" y="565"/>
      <point x="91" y="621"/>
      <point x="169" y="621" type="curve" smooth="yes"/>
      <point x="197" y="621" type="line"/>
      <point x="197" y="644" type="line" smooth="yes"/>
      <point x="197" y="665"/>
      <point x="183" y="679"/>
      <point x="151" y="679" type="curve" smooth="yes"/>
      <point x="123" y="679"/>
      <point x="95" y="669"/>
      <point x="74" y="656" type="curve"/>
      <point x="47" y="713" type="line"/>
      <point x="83" y="733"/>
      <point x="110" y="742"/>
      <point x="149" y="742" type="curve" smooth="yes"/>
      <point x="215" y="742"/>
      <point x="266" y="717"/>
      <point x="266" y="649" type="curve" smooth="yes"/>
    </contour>
    <contour>
      <point x="275" y="275" type="line"/>
      <point x="33" y="275" type="line"/>
      <point x="33" y="336" type="line"/>
      <point x="275" y="336" type="line"/>
    </contour>
    <contour>
      <point x="197" y="476" type="curve"/>
      <point x="197" y="563" type="line"/>
      <point x="179" y="563" type="line" smooth="yes"/>
      <point x="143" y="563"/>
      <point x="105" y="545"/>
      <point x="105" y="505" type="curve" smooth="yes"/>
      <point x="105" y="481"/>
      <point x="116" y="453"/>
      <point x="145" y="453" type="curve" smooth="yes"/>
      <point x="168" y="453"/>
      <point x="186" y="460"/>
    </contour>
  </outline>
</glyph>
<glyph name="guillemotleft" format="1">
  <advance width="257"/>
  <unicode hex="00AB"/>
  <outline>
    <contour>
      <point x="234" y="46" type="line"/>
      <point x="139" y="160" type="line"/>
      <point x="139" y="238" type="line"/>
      <point x="234" y="352" type="line"/>
      <point x="234" y="254" type="line"/>
      <point x="188" y="199" type="line"/>
      <point x="234" y="144" type="line"/>
    </contour>
    <contour>
      <point x="117" y="46" type="line"/>
      <point x="22" y="160" type="line"/>
      <point x="22" y="238" type="line"/>
      <point x="117" y="352" type="line"/>
      <point x="117" y="254" type="line"/>
      <point x="71" y="199" type="line"/>
      <point x="117" y="144" type="line"/>
    </contour>
  </outline>
</glyph>
<glyph name="degree" format="1">
  <advance width="426"/>
  <unicode hex="00B0"/>
  <outline>
    <contour>
      <point x="401" y="554" type="curve" smooth="yes"/>
      <point x="401" y="450"/>
      <point x="317" y="366"/>
      <point x="213" y="366" type="curve" smooth="yes"/>
      <point x="109" y="366"/>
      <point x="25" y="450"/>
      <point x="25" y="554" type="curve" smooth="yes"/>
      <point x="25" y="658"/>
      <point x="109" y="742"/>
      <point x="213" y="742" type="curve" smooth="yes"/>
      <point x="317" y="742"/>
      <point x="401" y="658"/>
    </contour>
    <contour>
      <point x="320" y="554" type="curve" smooth="yes"/>
      <point x="320" y="613"/>
      <point x="272" y="661"/>
      <point x="213" y="661" type="curve" smooth="yes"/>
      <point x="154" y="661"/>
      <point x="106" y="613"/>
      <point x="106" y="554" type="curve" smooth="yes"/>
      <point x="106" y="495"/>
      <point x="154" y="447"/>
      <point x="213" y="447" type="curve" smooth="yes"/>
      <point x="272" y="447"/>
      <point x="320" y="495"/>
    </contour>
  </outline>
</glyph>
<glyph name="twosuperior" format="1">
  <advance width="284"/>
  <unicode hex="00B2"/>
  <outline>
    <contour>
      <point x="148" y="380" type="line"/>
      <point x="240" y="380" type="line"/>
      <point x="240" y="307" type="line"/>
      <point x="40" y="307" type="line"/>
      <point x="146" y="540" type="line" smooth="yes"/>
      <point x="166" y="585"/>
      <point x="169" y="607"/>
      <point x="169" y="622" type="curve" smooth="yes"/>
      <point x="169" y="646"/>
      <point x="162" y="666"/>
      <point x="139" y="666" type="curve" smooth="yes"/>
      <point x="116" y="666"/>
      <point x="107" y="646"/>
      <point x="107" y="623" type="curve" smooth="yes"/>
      <point x="107" y="610" type="line"/>
      <point x="39" y="610" type="line"/>
      <point x="39" y="623" type="line" smooth="yes"/>
      <point x="39" y="683"/>
      <point x="76" y="740"/>
      <point x="138" y="740" type="curve" smooth="yes"/>
      <point x="208" y="740"/>
      <point x="240" y="682"/>
      <point x="240" y="622" type="curve" smooth="yes"/>
      <point x="240" y="604"/>
      <point x="240" y="578"/>
      <point x="220" y="535" type="curve" smooth="yes"/>
    </contour>
  </outline>
</glyph>
<glyph name="acute" format="1">
  <advance width="350"/>
  <unicode hex="00B4"/>
  <outline>
    <contour>
      <point x="259" y="626" type="line"/>
      <point x="180" y="489" type="line"/>
      <point x="97" y="489" type="line"/>
      <point x="176" y="626" type="line"/>
    </contour>
  </outline>
</glyph>
<glyph name="paragraph" format="1">
  <advance width="533"/>
  <unicode hex="00B6"/>
  <outline>
    <contour>
      <point x="482" y="-179" type="line"/>
      <point x="401" y="-179" type="line"/>
      <point x="401" y="650" type="line"/>
      <point x="339" y="650" type="line"/>
      <point x="339" y="-179" type="line"/>
      <point x="258" y="-179" type="line"/>
      <point x="258" y="247" type="line"/>
      <point x="238" y="247" type="line" smooth="yes"/>
      <point x="106" y="247"/>
      <point x="22" y="372"/>
      <point x="22" y="486" type="curve" smooth="yes"/>
      <point x="22" y="642"/>
      <point x="131" y="730"/>
      <point x="240" y="730" type="curve" smooth="yes"/>
      <point x="482" y="730" type="line"/>
    </contour>
    <contour>
      <point x="258" y="327" type="line"/>
      <point x="258" y="650" type="line"/>
      <point x="238" y="650" type="line" smooth="yes"/>
      <point x="167" y="650"/>
      <point x="111" y="590"/>
      <point x="111" y="486" type="curve" smooth="yes"/>
      <point x="111" y="400"/>
      <point x="163" y="327"/>
      <point x="238" y="327" type="curve" smooth="yes"/>
    </contour>
  </outline>
</glyph>
<glyph name="periodcentered" format="1">
  <advance width="196"/>
  <unicode hex="00B7"/>
  <outline>
    <contour>
      <point x="151" y="306" type="line"/>
      <point x="47" y="306" type="line"/>
      <point x="47" y="416" type="line"/>
      <point x="151" y="416" type="line"/>
    </contour>
  </outline>
</glyph>
<glyph name="cedilla" format="1">
  <advance width="350"/>
  <unicode hex="00B8"/>
  <outline>
    <contour>
      <point x="275" y="-84" type="curve" smooth="yes"/>
      <point x="275" y="-138"/>
      <point x="218" y="-159"/>
      <point x="163" y="-159" type="curve" smooth="yes"/>
      <point x="127" y="-159"/>
      <point x="99" y="-150"/>
      <point x="71" y="-131" type="curve"/>
      <point x="98" y="-99" type="line"/>
      <point x="116" y="-111"/>
      <point x="134" y="-116"/>
      <point x="160" y="-116" type="curve" smooth="yes"/>
      <point x="179" y="-116"/>
      <point x="209" y="-110"/>
      <point x="209" y="-90" type="curve" smooth="yes"/>
      <point x="209" y="-72"/>
      <point x="191" y="-67"/>
      <point x="172" y="-67" type="curve" smooth="yes"/>
      <point x="158" y="-67"/>
      <point x="147" y="-68"/>
      <point x="135" y="-72" type="curve"/>
      <point x="114" y="-50" type="line"/>
      <point x="168" y="34" type="line"/>
      <point x="224" y="34" type="line"/>
      <point x="188" y="-30" type="line"/>
      <point x="236" y="-26"/>
      <point x="275" y="-47"/>
    </contour>
  </outline>
</glyph>
<glyph name="ordmasculine" format="1">
  <advance width="324"/>
  <unicode hex="00BA"/>
  <outline>
    <contour>
      <point x="284" y="566" type="curve" smooth="yes"/>
      <point x="284" y="482"/>
      <point x="250" y="390"/>
      <point x="162" y="390" type="curve" smooth="yes"/>
      <point x="74" y="390"/>
      <point x="40" y="482"/>
      <point x="40" y="566" type="curve" smooth="yes"/>
      <point x="40" y="656"/>
      <point x="74" y="742"/>
      <point x="162" y="742" type="curve" smooth="yes"/>
      <point x="250" y="742"/>
      <point x="284" y="656"/>
    </contour>
    <contour>
      <point x="287" y="275" type="line"/>
      <point x="37" y="275" type="line"/>
      <point x="37" y="336" type="line"/>
      <point x="287" y="336" type="line"/>
    </contour>
    <contour>
      <point x="213" y="566" type="curve" smooth="yes"/>
      <point x="213" y="623"/>
      <point x="204" y="679"/>
      <point x="162" y="679" type="curve" smooth="yes"/>
      <point x="120" y="679"/>
      <point x="111" y="623"/>
      <point x="111" y="566" type="curve" smooth="yes"/>
      <point x="111" y="509"/>
      <point x="120" y="453"/>
      <point x="162" y="453" type="curve" smooth="yes"/>
      <point x="204" y="453"/>
      <point x="213" y="509"/>
    </contour>
  </outline>
</glyph>
<glyph name="guillemotright" format="1">
  <advance width="257"/>
  <unicode hex="00BB"/>
  <outline>
    <contour>
      <point x="235" y="160" type="line"/>
      <point x="140" y="46" type="line"/>
      <point x="140" y="144" type="line"/>
      <point x="186" y="199" type="line"/>
      <point x="140" y="254" type="line"/>
      <point x="140" y="352" type="line"/>
      <point x="235" y="238" type="line"/>
    </contour>
    <contour>
      <point x="118" y="160" type="line"/>
      <point x="23" y="46" type="line"/>
      <point x="23" y="144" type="line"/>
      <point x="69" y="199" type="line"/>
      <point x="23" y="254" type="line"/>
      <point x="23" y="352" type="line"/>
      <point x="118" y="238" type="line"/>
    </contour>
  </outline>
</glyph>
<glyph name="onequarter" format="1">
  <advance width="596"/>
  <unicode hex="00BC"/>
  <outline>
    <contour>
      <point x="136" y="307" type="line"/>
      <point x="62" y="307" type="line"/>
      <point x="62" y="621" type="line"/>
      <point x="58" y="611"/>
      <point x="36" y="598"/>
      <point x="20" y="595" type="curve"/>
      <point x="20" y="670" type="line"/>
      <point x="44" y="677"/>
      <point x="74" y="705"/>
      <point x="77" y="729" type="curve"/>
      <point x="136" y="729" type="line"/>
    </contour>
    <contour>
      <point x="477" y="730" type="line"/>
      <point x="156" y="0" type="line"/>
      <point x="84" y="0" type="line"/>
      <point x="405" y="730" type="line"/>
    </contour>
    <contour>
      <point x="572" y="83" type="line"/>
      <point x="542" y="83" type="line"/>
      <point x="542" y="0" type="line"/>
      <point x="467" y="0" type="line"/>
      <point x="467" y="83" type="line"/>
      <point x="337" y="83" type="line"/>
      <point x="337" y="145" type="line"/>
      <point x="453" y="404" type="line"/>
      <point x="542" y="404" type="line"/>
      <point x="542" y="155" type="line"/>
      <point x="572" y="155" type="line"/>
    </contour>
    <contour>
      <point x="468" y="293" type="curve"/>
      <point x="409" y="156" type="line"/>
      <point x="467" y="156" type="line"/>
      <point x="467" y="278" type="line" smooth="yes"/>
      <point x="467" y="283"/>
      <point x="468" y="293"/>
    </contour>
  </outline>
</glyph>
<glyph name="onehalf" format="1">
  <advance width="591"/>
  <unicode hex="00BD"/>
  <outline>
    <contour>
      <point x="136" y="307" type="line"/>
      <point x="62" y="307" type="line"/>
      <point x="62" y="621" type="line"/>
      <point x="58" y="611"/>
      <point x="36" y="598"/>
      <point x="20" y="595" type="curve"/>
      <point x="20" y="670" type="line"/>
      <point x="44" y="677"/>
      <point x="74" y="705"/>
      <point x="77" y="729" type="curve"/>
      <point x="136" y="729" type="line"/>
    </contour>
    <contour>
      <point x="467" y="730" type="line"/>
      <point x="146" y="0" type="line"/>
      <point x="74" y="0" type="line"/>
      <point x="395" y="730" type="line"/>
    </contour>
    <contour>
      <point x="460" y="73" type="line"/>
      <point x="552" y="73" type="line"/>
      <point x="552" y="0" type="line"/>
      <point x="352" y="0" type="line"/>
      <point x="458" y="233" type="line" smooth="yes"/>
      <point x="478" y="278"/>
      <point x="481" y="300"/>
      <point x="481" y="315" type="curve" smooth="yes"/>
      <point x="481" y="339"/>
      <point x="474" y="359"/>
      <point x="451" y="359" type="curve" smooth="yes"/>
      <point x="428" y="359"/>
      <point x="419" y="339"/>
      <point x="419" y="316" type="curve" smooth="yes"/>
      <point x="419" y="303" type="line"/>
      <point x="351" y="303" type="line"/>
      <point x="351" y="316" type="line" smooth="yes"/>
      <point x="351" y="376"/>
      <point x="388" y="433"/>
      <point x="450" y="433" type="curve" smooth="yes"/>
      <point x="520" y="433"/>
      <point x="552" y="375"/>
      <point x="552" y="315" type="curve" smooth="yes"/>
      <point x="552" y="297"/>
      <point x="552" y="271"/>
      <point x="532" y="228" type="curve" smooth="yes"/>
    </contour>
  </outline>
</glyph>
<glyph name="questiondown" format="1">
  <advance width="308"/>
  <unicode hex="00BF"/>
  <outline>
    <contour>
      <point x="213" y="635" type="line"/>
      <point x="128" y="635" type="line"/>
      <point x="128" y="730" type="line"/>
      <point x="213" y="730" type="line"/>
    </contour>
    <contour>
      <point x="296" y="83" type="line"/>
      <point x="280" y="32"/>
      <point x="234" y="-12"/>
      <point x="168" y="-12" type="curve" smooth="yes"/>
      <point x="80" y="-12"/>
      <point x="26" y="54"/>
      <point x="26" y="138" type="curve" smooth="yes"/>
      <point x="26" y="210"/>
      <point x="59" y="289"/>
      <point x="91" y="354" type="curve" smooth="yes"/>
      <point x="115" y="404"/>
      <point x="132" y="464"/>
      <point x="132" y="522" type="curve" smooth="yes"/>
      <point x="132" y="580" type="line"/>
      <point x="209" y="580" type="line"/>
      <point x="209" y="535" type="line" smooth="yes"/>
      <point x="209" y="447"/>
      <point x="190" y="377"/>
      <point x="166" y="324" type="curve" smooth="yes"/>
      <point x="142" y="270"/>
      <point x="120" y="210"/>
      <point x="120" y="147" type="curve" smooth="yes"/>
      <point x="120" y="105"/>
      <point x="135" y="77"/>
      <point x="168" y="77" type="curve" smooth="yes"/>
      <point x="204" y="77"/>
      <point x="221" y="101"/>
      <point x="232" y="133" type="curve"/>
    </contour>
  </outline>
</glyph>
<glyph name="Adieresis" format="1">
  <advance width="488"/>
  <unicode hex="00C4"/>
  <outline>
    <contour>
      <point x="411" y="629" type="line"/>
      <point x="333" y="629" type="line"/>
      <point x="333" y="730" type="line"/>
      <point x="411" y="730" type="line"/>
    </contour>
    <contour>
      <point x="155" y="629" type="line"/>
      <point x="77" y="629" type="line"/>
      <point x="77" y="730" type="line"/>
      <point x="155" y="730" type="line"/>
    </contour>
    <component base="A"/>
  </outline>
</glyph>
<glyph name="Aring" format="1">
  <advance width="488"/>
  <unicode hex="00C5"/>
  <outline>
    <contour>
      <point x="475" y="0" type="line"/>
      <point x="383" y="0" type="line"/>
      <point x="336" y="158" type="line"/>
      <point x="150" y="158" type="line"/>
      <point x="103" y="0" type="line"/>
      <point x="13" y="0" type="line"/>
      <point x="216" y="682" type="line"/>
      <point x="173" y="694"/>
      <point x="143" y="733"/>
      <point x="143" y="780" type="curve" smooth="yes"/>
      <point x="143" y="836"/>
      <point x="188" y="881"/>
      <point x="245" y="881" type="curve" smooth="yes"/>
      <point x="302" y="881"/>
      <point x="347" y="836"/>
      <point x="347" y="780" type="curve" smooth="yes"/>
      <point x="347" y="733"/>
      <point x="316" y="693"/>
      <point x="273" y="682" type="curve"/>
    </contour>
    <contour>
      <point x="292" y="780" type="curve" smooth="yes"/>
      <point x="292" y="806"/>
      <point x="271" y="826"/>
      <point x="245" y="826" type="curve" smooth="yes"/>
      <point x="219" y="826"/>
      <point x="198" y="806"/>
      <point x="198" y="780" type="curve" smooth="yes"/>
      <point x="198" y="754"/>
      <point x="219" y="733"/>
      <point x="245" y="733" type="curve" smooth="yes"/>
      <point x="271" y="733"/>
      <point x="292" y="754"/>
    </contour>
    <contour>
      <point x="310" y="236" type="line"/>
      <point x="254" y="455" type="line" smooth="yes"/>
      <point x="250" y="472"/>
      <point x="244" y="502"/>
      <point x="244" y="502" type="curve"/>
      <point x="244" y="500"/>
      <point x="240" y="473"/>
      <point x="235" y="455" type="curve" smooth="yes"/>
      <point x="176" y="236" type="line"/>
    </contour>
  </outline>
</glyph>
<glyph name="AE" format="1">
  <advance width="685"/>
  <unicode hex="00C6"/>
  <outline>
    <contour>
      <point x="644" y="0" type="line"/>
      <point x="350" y="0" type="line"/>
      <point x="350" y="158" type="line"/>
      <point x="164" y="158" type="line"/>
      <point x="102" y="0" type="line"/>
      <point x="9" y="0" type="line"/>
      <point x="301" y="730" type="line"/>
      <point x="635" y="730" type="line"/>
      <point x="635" y="645" type="line"/>
      <point x="440" y="645" type="line"/>
      <point x="440" y="401" type="line"/>
      <point x="623" y="401" type="line"/>
      <point x="623" y="316" type="line"/>
      <point x="440" y="316" type="line"/>
      <point x="440" y="85" type="line"/>
      <point x="644" y="85" type="line"/>
    </contour>
    <contour>
      <point x="350" y="236" type="line"/>
      <point x="350" y="640" type="line"/>
      <point x="196" y="236" type="line"/>
    </contour>
  </outline>
</glyph>
<glyph name="Ccedilla" format="1">
  <advance width="390"/>
  <unicode hex="00C7"/>
  <outline>
    <contour>
      <point x="364" y="18" type="line"/>
      <point x="335" y="-1"/>
      <point x="302" y="-11"/>
      <point x="270" y="-12" type="curve"/>
      <point x="260" y="-30" type="line"/>
      <point x="308" y="-26"/>
      <point x="347" y="-47"/>
      <point x="347" y="-84" type="curve" smooth="yes"/>
      <point x="347" y="-138"/>
      <point x="290" y="-159"/>
      <point x="235" y="-159" type="curve" smooth="yes"/>
      <point x="199" y="-159"/>
      <point x="171" y="-150"/>
      <point x="143" y="-131" type="curve"/>
      <point x="170" y="-99" type="line"/>
      <point x="188" y="-111"/>
      <point x="206" y="-116"/>
      <point x="232" y="-116" type="curve" smooth="yes"/>
      <point x="251" y="-116"/>
      <point x="281" y="-110"/>
      <point x="281" y="-90" type="curve" smooth="yes"/>
      <point x="281" y="-72"/>
      <point x="263" y="-67"/>
      <point x="244" y="-67" type="curve" smooth="yes"/>
      <point x="230" y="-67"/>
      <point x="219" y="-68"/>
      <point x="207" y="-72" type="curve"/>
      <point x="186" y="-50" type="line"/>
      <point x="215" y="-5" type="line"/>
      <point x="81" y="32"/>
      <point x="32" y="209"/>
      <point x="32" y="372" type="curve" smooth="yes"/>
      <point x="32" y="549"/>
      <point x="100" y="742"/>
      <point x="257" y="742" type="curve" smooth="yes"/>
      <point x="299" y="742"/>
      <point x="333" y="730"/>
      <point x="362" y="711" type="curve"/>
      <point x="326" y="636" type="line"/>
      <point x="310" y="646"/>
      <point x="288" y="653"/>
      <point x="261" y="653" type="curve" smooth="yes"/>
      <point x="168" y="653"/>
      <point x="126" y="503"/>
      <point x="126" y="372" type="curve" smooth="yes"/>
      <point x="126" y="261"/>
      <point x="148" y="77"/>
      <point x="266" y="77" type="curve" smooth="yes"/>
      <point x="297" y="77"/>
      <point x="311" y="84"/>
      <point x="328" y="95" type="curve"/>
    </contour>
  </outline>
</glyph>
<glyph name="Eth" format="1">
  <advance width="484"/>
  <unicode hex="00D0"/>
  <outline>
    <contour>
      <point x="452" y="372" type="curve" smooth="yes"/>
      <point x="452" y="144"/>
      <point x="357" y="0"/>
      <point x="175" y="0" type="curve" smooth="yes"/>
      <point x="72" y="0" type="line"/>
      <point x="72" y="315" type="line"/>
      <point x="27" y="315" type="line"/>
      <point x="27" y="400" type="line"/>
      <point x="72" y="400" type="line"/>
      <point x="72" y="730" type="line"/>
      <point x="178" y="730" type="line" smooth="yes"/>
      <point x="374" y="730"/>
      <point x="452" y="566"/>
    </contour>
    <contour>
      <point x="358" y="372" type="curve" smooth="yes"/>
      <point x="358" y="530"/>
      <point x="303" y="645"/>
      <point x="185" y="645" type="curve" smooth="yes"/>
      <point x="162" y="645" type="line"/>
      <point x="162" y="400" type="line"/>
      <point x="242" y="400" type="line"/>
      <point x="242" y="315" type="line"/>
      <point x="162" y="315" type="line"/>
      <point x="162" y="85" type="line"/>
      <point x="190" y="85" type="line" smooth="yes"/>
      <point x="308" y="85"/>
      <point x="358" y="200"/>
    </contour>
  </outline>
</glyph>
<glyph name="Odieresis" format="1">
  <advance width="520"/>
  <unicode hex="00D6"/>
  <outline>
    <contour>
      <point x="488" y="368" type="curve" smooth="yes"/>
      <point x="488" y="198"/>
      <point x="434" y="-12"/>
      <point x="260" y="-12" type="curve" smooth="yes"/>
      <point x="90" y="-12"/>
      <point x="32" y="198"/>
      <point x="32" y="368" type="curve" smooth="yes"/>
      <point x="32" y="459"/>
      <point x="48" y="556"/>
      <point x="87" y="629" type="curve"/>
      <point x="33" y="629" type="line"/>
      <point x="33" y="730" type="line"/>
      <point x="111" y="730" type="line"/>
      <point x="111" y="667" type="line"/>
      <point x="147" y="713"/>
      <point x="195" y="742"/>
      <point x="260" y="742" type="curve" smooth="yes"/>
      <point x="326" y="742"/>
      <point x="374" y="716"/>
      <point x="409" y="673" type="curve"/>
      <point x="409" y="730" type="line"/>
      <point x="487" y="730" type="line"/>
      <point x="487" y="629" type="line"/>
      <point x="438" y="629" type="line"/>
      <point x="475" y="556"/>
      <point x="488" y="459"/>
    </contour>
    <contour>
      <point x="394" y="368" type="curve" smooth="yes"/>
      <point x="394" y="501"/>
      <point x="373" y="653"/>
      <point x="260" y="653" type="curve" smooth="yes"/>
      <point x="150" y="653"/>
      <point x="126" y="501"/>
      <point x="126" y="368" type="curve" smooth="yes"/>
      <point x="126" y="242"/>
      <point x="150" y="77"/>
      <point x="260" y="77" type="curve" smooth="yes"/>
      <point x="373" y="77"/>
      <point x="394" y="242"/>
    </contour>
  </outline>
</glyph>
<glyph name="multiply" format="1">
  <advance width="323"/>
  <unicode hex="00D7"/>
  <outline>
    <contour>
      <point x="161" y="249" type="line"/>
      <point x="92" y="133" type="line"/>
      <point x="22" y="176" type="line"/>
      <point x="114" y="331" type="line"/>
      <point x="24" y="487" type="line"/>
      <point x="94" y="532" type="line"/>
      <point x="162" y="413" type="line"/>
      <point x="231" y="532" type="line"/>
      <point x="301" y="487" type="line"/>
      <point x="209" y="331" type="line"/>
      <point x="299" y="176" type="line"/>
      <point x="229" y="133" type="line"/>
    </contour>
  </outline>
</glyph>
<glyph name="Oslash" format="1">
  <advance width="520"/>
  <unicode hex="00D8"/>
  <outline>
    <contour>
      <point x="513" y="714" type="line"/>
      <point x="448" y="608" type="line"/>
      <point x="478" y="538"/>
      <point x="488" y="450"/>
      <point x="488" y="368" type="curve" smooth="yes"/>
      <point x="488" y="198"/>
      <point x="434" y="-12"/>
      <point x="260" y="-12" type="curve" smooth="yes"/>
      <point x="195" y="-12"/>
      <point x="146" y="19"/>
      <point x="111" y="67" type="curve"/>
      <point x="62" y="-12" type="line"/>
      <point x="20" y="16" type="line"/>
      <point x="82" y="116" type="line"/>
      <point x="46" y="189"/>
      <point x="32" y="283"/>
      <point x="32" y="368" type="curve" smooth="yes"/>
      <point x="32" y="542"/>
      <point x="90" y="742"/>
      <point x="260" y="742" type="curve" smooth="yes"/>
      <point x="333" y="742"/>
      <point x="385" y="710"/>
      <point x="420" y="659" type="curve"/>
      <point x="471" y="742" type="line"/>
    </contour>
    <contour>
      <point x="365" y="572" type="line"/>
      <point x="346" y="620"/>
      <point x="313" y="653"/>
      <point x="260" y="653" type="curve" smooth="yes"/>
      <point x="150" y="653"/>
      <point x="126" y="501"/>
      <point x="126" y="368" type="curve" smooth="yes"/>
      <point x="126" y="318"/>
      <point x="130" y="261"/>
      <point x="141" y="212" type="curve"/>
    </contour>
    <contour>
      <point x="394" y="368" type="curve" smooth="yes"/>
      <point x="394" y="414"/>
      <point x="391" y="462"/>
      <point x="384" y="506" type="curve"/>
      <point x="162" y="150" type="line"/>
      <point x="183" y="106"/>
      <point x="214" y="77"/>
      <point x="260" y="77" type="curve" smooth="yes"/>
      <point x="373" y="77"/>
      <point x="394" y="242"/>
    </contour>
  </outline>
</glyph>
<glyph name="Udieresis" format="1">
  <advance width="494"/>
  <unicode hex="00DC"/>
  <outline>
    <contour>
      <point x="326" y="629" type="line"/>
      <point x="263" y="629" type="line"/>
      <point x="263" y="730" type="line"/>
      <point x="326" y="730" type="line"/>
    </contour>
    <contour>
      <point x="233" y="629" type="line"/>
      <point x="170" y="629" type="line"/>
      <point x="170" y="730" type="line"/>
      <point x="233" y="730" type="line"/>
    </contour>
    <component base="U"/>
  </outline>
</glyph>
<glyph name="Thorn" format="1">
  <advance width="404"/>
  <unicode hex="00DE"/>
  <outline>
    <contour>
      <point x="383" y="377" type="curve" smooth="yes"/>
      <point x="383" y="263"/>
      <point x="299" y="158"/>
      <point x="167" y="158" type="curve" smooth="yes"/>
      <point x="147" y="158" type="line"/>
      <point x="147" y="0" type="line"/>
      <point x="57" y="0" type="line"/>
      <point x="57" y="730" type="line"/>
      <point x="147" y="730" type="line"/>
      <point x="147" y="601" type="line"/>
      <point x="165" y="601" type="line" smooth="yes"/>
      <point x="274" y="601"/>
      <point x="383" y="533"/>
    </contour>
    <contour>
      <point x="289" y="377" type="curve" smooth="yes"/>
      <point x="289" y="472"/>
      <point x="238" y="516"/>
      <point x="167" y="516" type="curve" smooth="yes"/>
      <point x="147" y="516" type="line"/>
      <point x="147" y="243" type="line"/>
      <point x="167" y="243" type="line" smooth="yes"/>
      <point x="242" y="243"/>
      <point x="289" y="299"/>
    </contour>
  </outline>
</glyph>
<glyph name="germandbls" format="1">
  <advance width="361"/>
  <unicode hex="00DF"/>
  <outline>
    <contour>
      <point x="336" y="212" type="curve" smooth="yes"/>
      <point x="336" y="92"/>
      <point x="281" y="0"/>
      <point x="171" y="0" type="curve"/>
      <point x="171" y="79" type="line"/>
      <point x="223" y="79"/>
      <point x="248" y="129"/>
      <point x="248" y="212" type="curve" smooth="yes"/>
      <point x="248" y="275"/>
      <point x="230" y="362"/>
      <point x="167" y="389" type="curve"/>
      <point x="167" y="441" type="line"/>
      <point x="208" y="455"/>
      <point x="230" y="499"/>
      <point x="230" y="561" type="curve" smooth="yes"/>
      <point x="230" y="632"/>
      <point x="212" y="663"/>
      <point x="179" y="663" type="curve" smooth="yes"/>
      <point x="140" y="663"/>
      <point x="131" y="619"/>
      <point x="131" y="565" type="curve" smooth="yes"/>
      <point x="131" y="0" type="line"/>
      <point x="45" y="0" type="line"/>
      <point x="45" y="557" type="line" smooth="yes"/>
      <point x="45" y="665"/>
      <point x="78" y="742"/>
      <point x="180" y="742" type="curve" smooth="yes"/>
      <point x="268" y="742"/>
      <point x="318" y="676"/>
      <point x="318" y="564" type="curve" smooth="yes"/>
      <point x="318" y="498"/>
      <point x="294" y="450"/>
      <point x="253" y="413" type="curve"/>
      <point x="300" y="371"/>
      <point x="336" y="316"/>
    </contour>
  </outline>
</glyph>
<glyph name="ae" format="1">
  <advance width="540"/>
  <unicode hex="00E6"/>
  <outline>
    <contour>
      <point x="515" y="57" type="line"/>
      <point x="479" y="12"/>
      <point x="436" y="-12"/>
      <point x="381" y="-12" type="curve" smooth="yes"/>
      <point x="330" y="-12"/>
      <point x="291" y="13"/>
      <point x="264" y="53" type="curve"/>
      <point x="240" y="16"/>
      <point x="202" y="-12"/>
      <point x="145" y="-12" type="curve" smooth="yes"/>
      <point x="70" y="-12"/>
      <point x="21" y="55"/>
      <point x="21" y="121" type="curve" smooth="yes"/>
      <point x="21" y="201"/>
      <point x="91" y="261"/>
      <point x="189" y="261" type="curve" smooth="yes"/>
      <point x="224" y="261" type="line"/>
      <point x="224" y="305" type="line" smooth="yes"/>
      <point x="224" y="332"/>
      <point x="207" y="349"/>
      <point x="167" y="349" type="curve" smooth="yes"/>
      <point x="131" y="349"/>
      <point x="97" y="337"/>
      <point x="70" y="320" type="curve"/>
      <point x="37" y="391" type="line"/>
      <point x="81" y="417"/>
      <point x="115" y="428"/>
      <point x="164" y="428" type="curve" smooth="yes"/>
      <point x="212" y="428"/>
      <point x="257" y="414"/>
      <point x="280" y="387" type="curve"/>
      <point x="300" y="410"/>
      <point x="333" y="428"/>
      <point x="371" y="428" type="curve" smooth="yes"/>
      <point x="467" y="428"/>
      <point x="515" y="331"/>
      <point x="515" y="244" type="curve" smooth="yes"/>
      <point x="515" y="193" type="line"/>
      <point x="309" y="193" type="line"/>
      <point x="309" y="130"/>
      <point x="329" y="67"/>
      <point x="381" y="67" type="curve" smooth="yes"/>
      <point x="414" y="67"/>
      <point x="441" y="87"/>
      <point x="462" y="110" type="curve"/>
    </contour>
    <contour>
      <point x="429" y="260" type="line"/>
      <point x="429" y="269" type="line" smooth="yes"/>
      <point x="429" y="310"/>
      <point x="406" y="349"/>
      <point x="371" y="349" type="curve" smooth="yes"/>
      <point x="333" y="349"/>
      <point x="310" y="315"/>
      <point x="309" y="260" type="curve"/>
    </contour>
    <contour>
      <point x="225" y="129" type="curve" smooth="yes"/>
      <point x="225" y="189" type="line"/>
      <point x="192" y="189" type="line" smooth="yes"/>
      <point x="146" y="189"/>
      <point x="109" y="169"/>
      <point x="109" y="125" type="curve" smooth="yes"/>
      <point x="109" y="95"/>
      <point x="123" y="67"/>
      <point x="159" y="67" type="curve" smooth="yes"/>
      <point x="198" y="67"/>
      <point x="225" y="98"/>
    </contour>
  </outline>
</glyph>
<glyph name="ccedilla" format="1">
  <advance width="316"/>
  <unicode hex="00E7"/>
  <outline>
    <contour>
      <point x="303" y="71" type="line"/>
      <point x="278" y="24"/>
      <point x="247" y="-5"/>
      <point x="194" y="-11" type="curve"/>
      <point x="183" y="-30" type="line"/>
      <point x="231" y="-26"/>
      <point x="270" y="-47"/>
      <point x="270" y="-84" type="curve" smooth="yes"/>
      <point x="270" y="-138"/>
      <point x="213" y="-159"/>
      <point x="158" y="-159" type="curve" smooth="yes"/>
      <point x="122" y="-159"/>
      <point x="94" y="-150"/>
      <point x="66" y="-131" type="curve"/>
      <point x="93" y="-99" type="line"/>
      <point x="111" y="-111"/>
      <point x="129" y="-116"/>
      <point x="155" y="-116" type="curve" smooth="yes"/>
      <point x="174" y="-116"/>
      <point x="204" y="-110"/>
      <point x="204" y="-90" type="curve" smooth="yes"/>
      <point x="204" y="-72"/>
      <point x="186" y="-67"/>
      <point x="167" y="-67" type="curve" smooth="yes"/>
      <point x="153" y="-67"/>
      <point x="142" y="-68"/>
      <point x="130" y="-72" type="curve"/>
      <point x="109" y="-50" type="line"/>
      <point x="137" y="-7" type="line"/>
      <point x="60" y="15"/>
      <point x="25" y="104"/>
      <point x="25" y="207" type="curve" smooth="yes"/>
      <point x="25" y="328"/>
      <point x="71" y="428"/>
      <point x="174" y="428" type="curve" smooth="yes"/>
      <point x="244" y="428"/>
      <point x="272" y="398"/>
      <point x="292" y="362" type="curve"/>
      <point x="231" y="313" type="line"/>
      <point x="218" y="337"/>
      <point x="200" y="349"/>
      <point x="175" y="349" type="curve" smooth="yes"/>
      <point x="120" y="349"/>
      <point x="113" y="264"/>
      <point x="113" y="207" type="curve" smooth="yes"/>
      <point x="113" y="154"/>
      <point x="122" y="67"/>
      <point x="176" y="67" type="curve" smooth="yes"/>
      <point x="201" y="67"/>
      <point x="228" y="89"/>
      <point x="241" y="116" type="curve"/>
    </contour>
  </outline>
</glyph>
<glyph name="eth" format="1">
  <advance width="354"/>
  <unicode hex="00F0"/>
  <outline>
    <contour>
      <point x="329" y="208" type="curve" smooth="yes"/>
      <point x="329" y="103"/>
      <point x="287" y="-12"/>
      <point x="177" y="-12" type="curve" smooth="yes"/>
      <point x="67" y="-12"/>
      <point x="25" y="102"/>
      <point x="25" y="211" type="curve" smooth="yes"/>
      <point x="25" y="320"/>
      <point x="70" y="428"/>
      <point x="167" y="428" type="curve" smooth="yes"/>
      <point x="200" y="428"/>
      <point x="223" y="415"/>
      <point x="243" y="391" type="curve"/>
      <point x="241" y="428"/>
      <point x="225" y="494"/>
      <point x="193" y="561" type="curve"/>
      <point x="95" y="521" type="line"/>
      <point x="67" y="579" type="line"/>
      <point x="161" y="617" type="line"/>
      <point x="140" y="650"/>
      <point x="115" y="681"/>
      <point x="84" y="707" type="curve"/>
      <point x="127" y="749" type="line"/>
      <point x="168" y="716"/>
      <point x="200" y="681"/>
      <point x="226" y="644" type="curve"/>
      <point x="290" y="670" type="line"/>
      <point x="317" y="612" type="line"/>
      <point x="260" y="589" type="line"/>
      <point x="316" y="481"/>
      <point x="329" y="356"/>
    </contour>
    <contour>
      <point x="241" y="208" type="curve" smooth="yes"/>
      <point x="241" y="279"/>
      <point x="229" y="349"/>
      <point x="177" y="349" type="curve" smooth="yes"/>
      <point x="125" y="349"/>
      <point x="113" y="279"/>
      <point x="113" y="208" type="curve" smooth="yes"/>
      <point x="113" y="137"/>
      <point x="125" y="67"/>
      <point x="177" y="67" type="curve" smooth="yes"/>
      <point x="229" y="67"/>
      <point x="241" y="137"/>
    </contour>
  </outline>
</glyph>
<glyph name="oslash" format="1">
  <advance width="354"/>
  <unicode hex="00F8"/>
  <outline>
    <contour>
      <point x="330" y="408" type="line"/>
      <point x="296" y="356" type="line"/>
      <point x="319" y="315"/>
      <point x="329" y="262"/>
      <point x="329" y="208" type="curve" smooth="yes"/>
      <point x="329" y="103"/>
      <point x="287" y="-12"/>
      <point x="177" y="-12" type="curve" smooth="yes"/>
      <point x="138" y="-12"/>
      <point x="108" y="2"/>
      <point x="84" y="26" type="curve"/>
      <point x="60" y="-12" type="line"/>
      <point x="26" y="8" type="line"/>
      <point x="59" y="59" type="line"/>
      <point x="36" y="101"/>
      <point x="25" y="156"/>
      <point x="25" y="208" type="curve" smooth="yes"/>
      <point x="25" y="320"/>
      <point x="67" y="428"/>
      <point x="177" y="428" type="curve" smooth="yes"/>
      <point x="217" y="428"/>
      <point x="248" y="414"/>
      <point x="271" y="390" type="curve"/>
      <point x="296" y="428" type="line"/>
    </contour>
    <contour>
      <point x="224" y="316" type="line"/>
      <point x="214" y="336"/>
      <point x="199" y="349"/>
      <point x="177" y="349" type="curve" smooth="yes"/>
      <point x="125" y="349"/>
      <point x="113" y="279"/>
      <point x="113" y="208" type="curve" smooth="yes"/>
      <point x="113" y="188"/>
      <point x="114" y="168"/>
      <point x="117" y="149" type="curve"/>
    </contour>
    <contour>
      <point x="241" y="208" type="curve" smooth="yes"/>
      <point x="241" y="227"/>
      <point x="240" y="247"/>
      <point x="238" y="265" type="curve"/>
      <point x="131" y="98" type="line"/>
      <point x="141" y="79"/>
      <point x="155" y="67"/>
      <point x="177" y="67" type="curve" smooth="yes"/>
      <point x="229" y="67"/>
      <point x="241" y="137"/>
    </contour>
  </outline>
</glyph>
<glyph name="dotlessi" format="1">
  <advance width="176"/>
  <unicode hex="0131"/>
  <outline>
    <contour>
      <point x="131" y="0" type="line"/>
      <point x="45" y="0" type="line"/>
      <point x="45" y="416" type="line"/>
      <point x="131" y="416" type="line"/>
    </contour>
  </outline>
</glyph>
<glyph name="Lslash" format="1">
  <advance width="374"/>
  <unicode hex="0141"/>
  <outline>
    <contour>
      <point x="351" y="0" type="line"/>
      <point x="72" y="0" type="line"/>
      <point x="72" y="296" type="line"/>
      <point x="35" y="281" type="line"/>
      <point x="1" y="352" type="line"/>
      <point x="72" y="381" type="line"/>
      <point x="72" y="730" type="line"/>
      <point x="162" y="730" type="line"/>
      <point x="162" y="417" type="line"/>
      <point x="258" y="456" type="line"/>
      <point x="291" y="385" type="line"/>
      <point x="162" y="333" type="line"/>
      <point x="162" y="85" type="line"/>
      <point x="351" y="85" type="line"/>
    </contour>
  </outline>
</glyph>
<glyph name="lslash" format="1">
  <advance width="212"/>
  <unicode hex="0142"/>
  <outline>
    <contour>
      <point x="205" y="348" type="line"/>
      <point x="149" y="325" type="line"/>
      <point x="149" y="0" type="line"/>
      <point x="63" y="0" type="line"/>
      <point x="63" y="290" type="line"/>
      <point x="41" y="281" type="line"/>
      <point x="7" y="352" type="line"/>
      <point x="63" y="375" type="line"/>
      <point x="63" y="730" type="line"/>
      <point x="149" y="730" type="line"/>
      <point x="149" y="410" type="line"/>
      <point x="172" y="419" type="line"/>
    </contour>
  </outline>
</glyph>
<glyph name="OE" format="1">
  <advance width="730"/>
  <unicode hex="0152"/>
  <outline>
    <contour>
      <point x="689" y="0" type="line"/>
      <point x="395" y="0" type="line"/>
      <point x="395" y="57" type="line"/>
      <point x="370" y="17"/>
      <point x="317" y="-12"/>
      <point x="260" y="-12" type="curve" smooth="yes"/>
      <point x="90" y="-12"/>
      <point x="32" y="198"/>
      <point x="32" y="368" type="curve" smooth="yes"/>
      <point x="32" y="542"/>
      <point x="90" y="742"/>
      <point x="260" y="742" type="curve" smooth="yes"/>
      <point x="318" y="742"/>
      <point x="370" y="713"/>
      <point x="395" y="673" type="curve"/>
      <point x="395" y="730" type="line"/>
      <point x="680" y="730" type="line"/>
      <point x="680" y="645" type="line"/>
      <point x="485" y="645" type="line"/>
      <point x="485" y="401" type="line"/>
      <point x="668" y="401" type="line"/>
      <point x="668" y="316" type="line"/>
      <point x="485" y="316" type="line"/>
      <point x="485" y="85" type="line"/>
      <point x="689" y="85" type="line"/>
    </contour>
    <contour>
      <point x="394" y="368" type="curve" smooth="yes"/>
      <point x="394" y="501"/>
      <point x="373" y="653"/>
      <point x="260" y="653" type="curve" smooth="yes"/>
      <point x="150" y="653"/>
      <point x="126" y="501"/>
      <point x="126" y="368" type="curve" smooth="yes"/>
      <point x="126" y="242"/>
      <point x="150" y="77"/>
      <point x="260" y="77" type="curve" smooth="yes"/>
      <point x="373" y="77"/>
      <point x="394" y="242"/>
    </contour>
  </outline>
</glyph>
<glyph name="oe" format="1">
  <advance width="557"/>
  <unicode hex="0153"/>
  <outline>
    <contour>
      <point x="532" y="57" type="line"/>
      <point x="496" y="12"/>
      <point x="453" y="-12"/>
      <point x="398" y="-12" type="curve" smooth="yes"/>
      <point x="350" y="-12"/>
      <point x="308" y="15"/>
      <point x="286" y="51" type="curve"/>
      <point x="265" y="16"/>
      <point x="226" y="-12"/>
      <point x="177" y="-12" type="curve" smooth="yes"/>
      <point x="67" y="-12"/>
      <point x="25" y="103"/>
      <point x="25" y="208" type="curve" smooth="yes"/>
      <point x="25" y="320"/>
      <point x="67" y="428"/>
      <point x="177" y="428" type="curve" smooth="yes"/>
      <point x="224" y="428"/>
      <point x="266" y="403"/>
      <point x="284" y="370" type="curve"/>
      <point x="303" y="402"/>
      <point x="342" y="428"/>
      <point x="388" y="428" type="curve" smooth="yes"/>
      <point x="484" y="428"/>
      <point x="532" y="331"/>
      <point x="532" y="244" type="curve" smooth="yes"/>
      <point x="532" y="188" type="line"/>
      <point x="326" y="188" type="line"/>
      <point x="329" y="125"/>
      <point x="346" y="67"/>
      <point x="398" y="67" type="curve" smooth="yes"/>
      <point x="431" y="67"/>
      <point x="458" y="87"/>
      <point x="479" y="110" type="curve"/>
    </contour>
    <contour>
      <point x="446" y="255" type="line"/>
      <point x="446" y="269" type="line" smooth="yes"/>
      <point x="446" y="310"/>
      <point x="423" y="349"/>
      <point x="388" y="349" type="curve" smooth="yes"/>
      <point x="350" y="349"/>
      <point x="327" y="310"/>
      <point x="326" y="255" type="curve"/>
    </contour>
    <contour>
      <point x="241" y="208" type="curve" smooth="yes"/>
      <point x="241" y="279"/>
      <point x="229" y="349"/>
      <point x="177" y="349" type="curve" smooth="yes"/>
      <point x="125" y="349"/>
      <point x="113" y="279"/>
      <point x="113" y="208" type="curve" smooth="yes"/>
      <point x="113" y="137"/>
      <point x="125" y="67"/>
      <point x="177" y="67" type="curve" smooth="yes"/>
      <point x="229" y="67"/>
      <point x="241" y="137"/>
    </contour>
  </outline>
</glyph>
<glyph name="florin" format="1">
  <advance width="256"/>
  <unicode hex="0192"/>
  <outline>
    <contour>
      <point x="231" y="730" type="curve"/>
      <point x="224" y="644" type="line"/>
      <point x="198" y="644"/>
      <point x="182" y="622"/>
      <point x="178" y="575" type="curve" smooth="yes"/>
      <point x="164" y="416" type="line"/>
      <point x="215" y="416" type="line"/>
      <point x="208" y="339" type="line"/>
      <point x="157" y="339" type="line"/>
      <point x="125" y="-29" type="line" smooth="yes"/>
      <point x="115" y="-144"/>
      <point x="58" y="-179"/>
      <point x="-14" y="-179" type="curve"/>
      <point x="-7" y="-93" type="line"/>
      <point x="19" y="-93"/>
      <point x="35" y="-71"/>
      <point x="39" y="-24" type="curve" smooth="yes"/>
      <point x="71" y="339" type="line"/>
      <point x="27" y="339" type="line"/>
      <point x="34" y="416" type="line"/>
      <point x="78" y="416" type="line"/>
      <point x="92" y="580" type="line" smooth="yes"/>
      <point x="102" y="695"/>
      <point x="159" y="730"/>
    </contour>
  </outline>
</glyph>
<glyph name="circumflex" format="1">
  <advance width="350"/>
  <unicode hex="02C6"/>
  <outline>
    <contour>
      <point x="282" y="489" type="line"/>
      <point x="210" y="489" type="line"/>
      <point x="174" y="572" type="line"/>
      <point x="138" y="489" type="line"/>
      <point x="68" y="489" type="line"/>
      <point x="138" y="636" type="line"/>
      <point x="212" y="636" type="line"/>
    </contour>
  </outline>
</glyph>
<glyph name="caron" format="1">
  <advance width="350"/>
  <unicode hex="02C7"/>
  <outline>
    <contour>
      <point x="280" y="636" type="line"/>
      <point x="210" y="489" type="line"/>
      <point x="136" y="489" type="line"/>
      <point x="66" y="636" type="line"/>
      <point x="138" y="636" type="line"/>
      <point x="174" y="553" type="line"/>
      <point x="210" y="636" type="line"/>
    </contour>
  </outline>
</glyph>
<glyph name="breve" format="1">
  <advance width="350"/>
  <unicode hex="02D8"/>
  <outline>
    <contour>
      <point x="299" y="612" type="line"/>
      <point x="299" y="522"/>
      <point x="247" y="485"/>
      <point x="175" y="485" type="curve" smooth="yes"/>
      <point x="103" y="485"/>
      <point x="51" y="522"/>
      <point x="51" y="612" type="curve"/>
      <point x="116" y="612" type="line"/>
      <point x="116" y="568"/>
      <point x="137" y="542"/>
      <point x="175" y="542" type="curve" smooth="yes"/>
      <point x="213" y="542"/>
      <point x="234" y="568"/>
      <point x="234" y="612" type="curve"/>
    </contour>
  </outline>
</glyph>
<glyph name="dotaccent" format="1">
  <advance width="350"/>
  <unicode hex="02D9"/>
  <outline>
    <contour>
      <point x="221" y="489" type="line"/>
      <point x="129" y="489" type="line"/>
      <point x="129" y="600" type="line"/>
      <point x="221" y="600" type="line"/>
    </contour>
  </outline>
</glyph>
<glyph name="ring" format="1">
  <advance width="350"/>
  <unicode hex="02DA"/>
  <outline>
    <contour>
      <point x="278" y="584" type="curve" smooth="yes"/>
      <point x="278" y="527"/>
      <point x="233" y="482"/>
      <point x="176" y="482" type="curve" smooth="yes"/>
      <point x="119" y="482"/>
      <point x="74" y="527"/>
      <point x="74" y="584" type="curve" smooth="yes"/>
      <point x="74" y="640"/>
      <point x="119" y="685"/>
      <point x="176" y="685" type="curve" smooth="yes"/>
      <point x="233" y="685"/>
      <point x="278" y="640"/>
    </contour>
    <contour>
      <point x="223" y="584" type="curve" smooth="yes"/>
      <point x="223" y="610"/>
      <point x="202" y="630"/>
      <point x="176" y="630" type="curve" smooth="yes"/>
      <point x="150" y="630"/>
      <point x="129" y="610"/>
      <point x="129" y="584" type="curve" smooth="yes"/>
      <point x="129" y="558"/>
      <point x="150" y="537"/>
      <point x="176" y="537" type="curve" smooth="yes"/>
      <point x="202" y="537"/>
      <point x="223" y="558"/>
    </contour>
  </outline>
</glyph>
<glyph name="ogonek" format="1">
  <advance width="350"/>
  <unicode hex="02DB"/>
  <outline>
    <contour>
      <point x="264" y="-149" type="line"/>
      <point x="237" y="-171"/>
      <point x="206" y="-181"/>
      <point x="165" y="-181" type="curve" smooth="yes"/>
      <point x="110" y="-181"/>
      <point x="50" y="-152"/>
      <point x="50" y="-98" type="curve" smooth="yes"/>
      <point x="50" y="-61"/>
      <point x="81" y="-23"/>
      <point x="151" y="12" type="curve"/>
      <point x="217" y="12" type="line"/>
      <point x="151" y="-34"/>
      <point x="132" y="-66"/>
      <point x="132" y="-94" type="curve" smooth="yes"/>
      <point x="132" y="-123"/>
      <point x="151" y="-133"/>
      <point x="170" y="-133" type="curve" smooth="yes"/>
      <point x="196" y="-133"/>
      <point x="213" y="-128"/>
      <point x="237" y="-112" type="curve"/>
    </contour>
  </outline>
</glyph>
<glyph name="tilde" format="1">
  <advance width="350"/>
  <unicode hex="02DC"/>
  <outline>
    <contour>
      <point x="295" y="586" type="line"/>
      <point x="295" y="519"/>
      <point x="269" y="487"/>
      <point x="217" y="487" type="curve" smooth="yes"/>
      <point x="188" y="487"/>
      <point x="171" y="500"/>
      <point x="157" y="511" type="curve" smooth="yes"/>
      <point x="145" y="521"/>
      <point x="134" y="531"/>
      <point x="124" y="531" type="curve" smooth="yes"/>
      <point x="113" y="531"/>
      <point x="106" y="513"/>
      <point x="106" y="489" type="curve"/>
      <point x="45" y="489" type="line"/>
      <point x="45" y="556"/>
      <point x="71" y="588"/>
      <point x="123" y="588" type="curve" smooth="yes"/>
      <point x="147" y="588"/>
      <point x="164" y="578"/>
      <point x="177" y="568" type="curve" smooth="yes"/>
      <point x="192" y="557"/>
      <point x="205" y="544"/>
      <point x="216" y="544" type="curve" smooth="yes"/>
      <point x="228" y="544"/>
      <point x="234" y="562"/>
      <point x="234" y="586" type="curve"/>
    </contour>
  </outline>
</glyph>
<glyph name="hungarumlaut" format="1">
  <advance width="350"/>
  <unicode hex="02DD"/>
  <outline>
    <contour>
      <point x="339" y="636" type="line"/>
      <point x="246" y="489" type="line"/>
      <point x="155" y="489" type="line"/>
      <point x="248" y="636" type="line"/>
    </contour>
    <contour>
      <point x="195" y="636" type="line"/>
      <point x="102" y="489" type="line"/>
      <point x="11" y="489" type="line"/>
      <point x="104" y="636" type="line"/>
    </contour>
  </outline>
</glyph>
<glyph name="endash" format="1">
  <advance width="270"/>
  <unicode hex="2013"/>
  <outline>
    <contour>
      <point x="235" y="171" type="line"/>
      <point x="35" y="171" type="line"/>
      <point x="35" y="256" type="line"/>
      <point x="235" y="256" type="line"/>
    </contour>
  </outline>
</glyph>
<glyph name="emdash" format="1">
  <advance width="340"/>
  <unicode hex="2014"/>
  <outline>
    <contour>
      <point x="305" y="171" type="line"/>
      <point x="35" y="171" type="line"/>
      <point x="35" y="256" type="line"/>
      <point x="305" y="256" type="line"/>
    </contour>
  </outline>
</glyph>
<glyph name="quoteright" format="1">
  <advance width="165"/>
  <unicode hex="2019"/>
  <unicode hex="02BC"/>
  <outline>
    <contour>
      <point x="132" y="666" type="line" smooth="yes"/>
      <point x="132" y="602"/>
      <point x="92" y="537"/>
      <point x="70" y="513" type="curve"/>
      <point x="20" y="513" type="line"/>
      <point x="29" y="532"/>
      <point x="47" y="577"/>
      <point x="47" y="619" type="curve" smooth="yes"/>
      <point x="47" y="730" type="line"/>
      <point x="132" y="730" type="line"/>
    </contour>
  </outline>
</glyph>
<glyph name="quotesinglbase" format="1">
  <advance width="165"/>
  <unicode hex="201A"/>
  <outline>
    <contour>
      <point x="132" y="36" type="line" smooth="yes"/>
      <point x="132" y="-28"/>
      <point x="92" y="-93"/>
      <point x="70" y="-117" type="curve"/>
      <point x="20" y="-117" type="line"/>
      <point x="29" y="-98"/>
      <point x="47" y="-53"/>
      <point x="47" y="-11" type="curve" smooth="yes"/>
      <point x="47" y="100" type="line"/>
      <point x="132" y="100" type="line"/>
    </contour>
  </outline>
</glyph>
<glyph name="quotedblleft" format="1">
  <advance width="301"/>
  <unicode hex="201C"/>
  <outline>
    <contour>
      <point x="281" y="730" type="line"/>
      <point x="272" y="711"/>
      <point x="254" y="666"/>
      <point x="254" y="624" type="curve" smooth="yes"/>
      <point x="254" y="513" type="line"/>
      <point x="169" y="513" type="line"/>
      <point x="169" y="577" type="line" smooth="yes"/>
      <point x="169" y="641"/>
      <point x="209" y="706"/>
      <point x="231" y="730" type="curve"/>
    </contour>
    <contour>
      <point x="145" y="730" type="line"/>
      <point x="136" y="711"/>
      <point x="118" y="666"/>
      <point x="118" y="624" type="curve" smooth="yes"/>
      <point x="118" y="513" type="line"/>
      <point x="33" y="513" type="line"/>
      <point x="33" y="577" type="line" smooth="yes"/>
      <point x="33" y="641"/>
      <point x="73" y="706"/>
      <point x="95" y="730" type="curve"/>
    </contour>
  </outline>
</glyph>
<glyph name="quotedblright" format="1">
  <advance width="301"/>
  <unicode hex="201D"/>
  <outline>
    <contour>
      <point x="268" y="666" type="line" smooth="yes"/>
      <point x="268" y="602"/>
      <point x="228" y="537"/>
      <point x="206" y="513" type="curve"/>
      <point x="156" y="513" type="line"/>
      <point x="165" y="532"/>
      <point x="183" y="577"/>
      <point x="183" y="619" type="curve" smooth="yes"/>
      <point x="183" y="730" type="line"/>
      <point x="268" y="730" type="line"/>
    </contour>
    <contour>
      <point x="132" y="666" type="line" smooth="yes"/>
      <point x="132" y="602"/>
      <point x="92" y="537"/>
      <point x="70" y="513" type="curve"/>
      <point x="20" y="513" type="line"/>
      <point x="29" y="532"/>
      <point x="47" y="577"/>
      <point x="47" y="619" type="curve" smooth="yes"/>
      <point x="47" y="730" type="line"/>
      <point x="132" y="730" type="line"/>
    </contour>
  </outline>
</glyph>
<glyph name="quotedblbase" format="1">
  <advance width="301"/>
  <unicode hex="201E"/>
  <outline>
    <contour>
      <point x="268" y="36" type="line" smooth="yes"/>
      <point x="268" y="-28"/>
      <point x="228" y="-93"/>
      <point x="206" y="-117" type="curve"/>
      <point x="156" y="-117" type="line"/>
      <point x="165" y="-98"/>
      <point x="183" y="-53"/>
      <point x="183" y="-11" type="curve" smooth="yes"/>
      <point x="183" y="100" type="line"/>
      <point x="268" y="100" type="line"/>
    </contour>
    <contour>
      <point x="132" y="36" type="line" smooth="yes"/>
      <point x="132" y="-28"/>
      <point x="92" y="-93"/>
      <point x="70" y="-117" type="curve"/>
      <point x="20" y="-117" type="line"/>
      <point x="29" y="-98"/>
      <point x="47" y="-53"/>
      <point x="47" y="-11" type="curve" smooth="yes"/>
      <point x="47" y="100" type="line"/>
      <point x="132" y="100" type="line"/>
    </contour>
  </outline>
</glyph>
<glyph name="daggerdbl" format="1">
  <advance width="455"/>
  <unicode hex="2021"/>
  <outline>
    <contour>
      <point x="435" y="99" type="line"/>
      <point x="270" y="99" type="line"/>
      <point x="270" y="-179" type="line"/>
      <point x="185" y="-179" type="line"/>
      <point x="185" y="99" type="line"/>
      <point x="20" y="99" type="line"/>
      <point x="20" y="177" type="line"/>
      <point x="185" y="177" type="line"/>
      <point x="185" y="387" type="line"/>
      <point x="20" y="387" type="line"/>
      <point x="20" y="465" type="line"/>
      <point x="185" y="465" type="line"/>
      <point x="185" y="730" type="line"/>
      <point x="270" y="730" type="line"/>
      <point x="270" y="465" type="line"/>
      <point x="435" y="465" type="line"/>
      <point x="435" y="387" type="line"/>
      <point x="270" y="387" type="line"/>
      <point x="270" y="177" type="line"/>
      <point x="435" y="177" type="line"/>
    </contour>
  </outline>
</glyph>
<glyph name="ellipsis" format="1">
  <advance width="495"/>
  <unicode hex="2026"/>
  <outline>
    <contour>
      <point x="455" y="0" type="line"/>
      <point x="370" y="0" type="line"/>
      <point x="370" y="95" type="line"/>
      <point x="455" y="95" type="line"/>
    </contour>
    <contour>
      <point x="290" y="0" type="line"/>
      <point x="205" y="0" type="line"/>
      <point x="205" y="95" type="line"/>
      <point x="290" y="95" type="line"/>
    </contour>
    <contour>
      <point x="125" y="0" type="line"/>
      <point x="40" y="0" type="line"/>
      <point x="40" y="95" type="line"/>
      <point x="125" y="95" type="line"/>
    </contour>
  </outline>
</glyph>
<glyph name="perthousand" format="1">
  <advance width="934"/>
  <unicode hex="2030"/>
  <outline>
    <contour>
      <point x="294" y="556" type="curve" smooth="yes"/>
      <point x="294" y="469"/>
      <point x="254" y="365"/>
      <point x="165" y="365" type="curve" smooth="yes"/>
      <point x="80" y="365"/>
      <point x="40" y="469"/>
      <point x="40" y="553" type="curve" smooth="yes"/>
      <point x="40" y="639"/>
      <point x="80" y="742"/>
      <point x="168" y="742" type="curve" smooth="yes"/>
      <point x="259" y="742"/>
      <point x="294" y="636"/>
    </contour>
    <contour>
      <point x="600" y="730" type="line"/>
      <point x="136" y="0" type="line"/>
      <point x="55" y="0" type="line"/>
      <point x="519" y="730" type="line"/>
    </contour>
    <contour>
      <point x="904" y="179" type="curve" smooth="yes"/>
      <point x="904" y="92"/>
      <point x="864" y="-12"/>
      <point x="775" y="-12" type="curve" smooth="yes"/>
      <point x="690" y="-12"/>
      <point x="650" y="92"/>
      <point x="650" y="176" type="curve" smooth="yes"/>
      <point x="650" y="262"/>
      <point x="690" y="365"/>
      <point x="778" y="365" type="curve" smooth="yes"/>
      <point x="869" y="365"/>
      <point x="904" y="259"/>
    </contour>
    <contour>
      <point x="615" y="179" type="curve" smooth="yes"/>
      <point x="615" y="92"/>
      <point x="575" y="-12"/>
      <point x="486" y="-12" type="curve" smooth="yes"/>
      <point x="401" y="-12"/>
      <point x="361" y="92"/>
      <point x="361" y="176" type="curve" smooth="yes"/>
      <point x="361" y="262"/>
      <point x="401" y="365"/>
      <point x="489" y="365" type="curve" smooth="yes"/>
      <point x="580" y="365"/>
      <point x="615" y="259"/>
    </contour>
    <contour>
      <point x="219" y="553" type="curve" smooth="yes"/>
      <point x="219" y="610"/>
      <point x="205" y="676"/>
      <point x="167" y="676" type="curve" smooth="yes"/>
      <point x="128" y="676"/>
      <point x="114" y="614"/>
      <point x="114" y="553" type="curve" smooth="yes"/>
      <point x="114" y="493"/>
      <point x="127" y="431"/>
      <point x="165" y="431" type="curve" smooth="yes"/>
      <point x="206" y="431"/>
      <point x="219" y="494"/>
    </contour>
    <contour>
      <point x="829" y="176" type="curve" smooth="yes"/>
      <point x="829" y="233"/>
      <point x="815" y="299"/>
      <point x="777" y="299" type="curve" smooth="yes"/>
      <point x="738" y="299"/>
      <point x="724" y="237"/>
      <point x="724" y="176" type="curve" smooth="yes"/>
      <point x="724" y="116"/>
      <point x="737" y="54"/>
      <point x="775" y="54" type="curve" smooth="yes"/>
      <point x="816" y="54"/>
      <point x="829" y="117"/>
    </contour>
    <contour>
      <point x="540" y="176" type="curve" smooth="yes"/>
      <point x="540" y="233"/>
      <point x="526" y="299"/>
      <point x="488" y="299" type="curve" smooth="yes"/>
      <point x="449" y="299"/>
      <point x="435" y="237"/>
      <point x="435" y="176" type="curve" smooth="yes"/>
      <point x="435" y="116"/>
      <point x="448" y="54"/>
      <point x="486" y="54" type="curve" smooth="yes"/>
      <point x="527" y="54"/>
      <point x="540" y="117"/>
    </contour>
  </outline>
</glyph>
<glyph name="guilsinglleft" format="1">
  <advance width="140"/>
  <unicode hex="2039"/>
  <outline>
    <contour>
      <point x="117" y="46" type="line"/>
      <point x="22" y="160" type="line"/>
      <point x="22" y="238" type="line"/>
      <point x="117" y="352" type="line"/>
      <point x="117" y="254" type="line"/>
      <point x="71" y="199" type="line"/>
      <point x="117" y="144" type="line"/>
    </contour>
  </outline>
</glyph>
<glyph name="guilsinglright" format="1">
  <advance width="140"/>
  <unicode hex="203A"/>
  <outline>
    <contour>
      <point x="118" y="160" type="line"/>
      <point x="23" y="46" type="line"/>
      <point x="23" y="144" type="line"/>
      <point x="69" y="199" type="line"/>
      <point x="23" y="254" type="line"/>
      <point x="23" y="352" type="line"/>
      <point x="118" y="238" type="line"/>
    </contour>
  </outline>
</glyph>
<glyph name="fraction" format="1">
  <advance width="302"/>
  <unicode hex="2044"/>
  <outline>
    <contour>
      <point x="330" y="730" type="line"/>
      <point x="56" y="0" type="line"/>
      <point x="-28" y="0" type="line"/>
      <point x="246" y="730" type="line"/>
    </contour>
  </outline>
</glyph>
<glyph name="Euro" format="1">
  <advance width="391"/>
  <unicode hex="20AC"/>
  <outline>
    <contour>
      <point x="168" y="291" type="line"/>
      <point x="176" y="189"/>
      <point x="204" y="76"/>
      <point x="288" y="76" type="curve" smooth="yes"/>
      <point x="314" y="76"/>
      <point x="328" y="82"/>
      <point x="345" y="92" type="curve"/>
      <point x="381" y="16" type="line"/>
      <point x="354" y="-1"/>
      <point x="324" y="-12"/>
      <point x="290" y="-12" type="curve" smooth="yes"/>
      <point x="136" y="-12"/>
      <point x="88" y="134"/>
      <point x="77" y="291" type="curve"/>
      <point x="15" y="291" type="line"/>
      <point x="15" y="338" type="line"/>
      <point x="74" y="338" type="line"/>
      <point x="73" y="358"/>
      <point x="73" y="379"/>
      <point x="74" y="399" type="curve"/>
      <point x="15" y="399" type="line"/>
      <point x="15" y="446" type="line"/>
      <point x="77" y="446" type="line"/>
      <point x="90" y="599"/>
      <point x="146" y="742"/>
      <point x="279" y="742" type="curve" smooth="yes"/>
      <point x="324" y="742"/>
      <point x="351" y="731"/>
      <point x="379" y="712" type="curve"/>
      <point x="343" y="638" type="line"/>
      <point x="327" y="648"/>
      <point x="311" y="654"/>
      <point x="283" y="654" type="curve" smooth="yes"/>
      <point x="211" y="654"/>
      <point x="178" y="554"/>
      <point x="168" y="446" type="curve"/>
      <point x="285" y="446" type="line"/>
      <point x="285" y="399" type="line"/>
      <point x="165" y="399" type="line"/>
      <point x="164" y="379"/>
      <point x="164" y="360"/>
      <point x="165" y="338" type="curve"/>
      <point x="285" y="338" type="line"/>
      <point x="285" y="291" type="line"/>
    </contour>
  </outline>
</glyph>
<glyph name="minus" format="1">
  <advance width="383"/>
  <unicode hex="2212"/>
  <outline>
    <contour>
      <point x="24" y="262" type="line"/>
      <point x="24" y="364" type="line"/>
      <point x="359" y="364" type="line"/>
      <point x="359" y="262" type="line"/>
    </contour>
  </outline>
</glyph>
<glyph name="radical" format="1">
  <advance width="414"/>
  <unicode hex="221A"/>
  <outline>
    <contour>
      <point x="390" y="730" type="line"/>
      <point x="223" y="0" type="line"/>
      <point x="155" y="0" type="line"/>
      <point x="12" y="316" type="line"/>
      <point x="105" y="316" type="line"/>
      <point x="162" y="181" type="line" smooth="yes"/>
      <point x="171" y="160"/>
      <point x="178" y="135"/>
      <point x="178" y="135" type="curve"/>
      <point x="178" y="135"/>
      <point x="181" y="161"/>
      <point x="185" y="181" type="curve" smooth="yes"/>
      <point x="303" y="730" type="line"/>
    </contour>
  </outline>
</glyph>
<glyph name="f_f_l" format="1">
  <advance width="579"/>
  <unicode hex="FB04"/>
  <outline>
    <contour>
      <point x="534" y="0" type="line"/>
      <point x="448" y="0" type="line"/>
      <point x="448" y="730" type="line"/>
      <point x="534" y="730" type="line"/>
    </contour>
    <contour>
      <point x="382" y="339" type="line"/>
      <point x="342" y="339" type="line"/>
      <point x="342" y="0" type="line"/>
      <point x="256" y="0" type="line"/>
      <point x="256" y="339" type="line"/>
      <point x="212" y="339" type="line"/>
      <point x="212" y="416" type="line"/>
      <point x="256" y="416" type="line"/>
      <point x="256" y="580" type="line" smooth="yes"/>
      <point x="256" y="684"/>
      <point x="310" y="730"/>
      <point x="382" y="730" type="curve"/>
      <point x="382" y="644" type="line"/>
      <point x="356" y="644"/>
      <point x="342" y="622"/>
      <point x="342" y="575" type="curve" smooth="yes"/>
      <point x="342" y="416" type="line"/>
      <point x="382" y="416" type="line"/>
    </contour>
    <contour>
      <point x="187" y="339" type="line"/>
      <point x="147" y="339" type="line"/>
      <point x="147" y="0" type="line"/>
      <point x="61" y="0" type="line"/>
      <point x="61" y="339" type="line"/>
      <point x="17" y="339" type="line"/>
      <point x="17" y="416" type="line"/>
      <point x="61" y="416" type="line"/>
      <point x="61" y="580" type="line" smooth="yes"/>
      <point x="61" y="684"/>
      <point x="115" y="730"/>
      <point x="187" y="730" type="curve"/>
      <point x="187" y="644" type="line"/>
      <point x="161" y="644"/>
      <point x="147" y="622"/>
      <point x="147" y="575" type="curve" smooth="yes"/>
      <point x="147" y="416" type="line"/>
      <point x="187" y="416" type="line"/>
    </contour>
  </outline>
</glyph>
<glyph name="bullet" format="1">
  <advance width="302"/>
  <outline>
    <contour>
      <point x="262" y="379" type="curve" smooth="yes"/>
      <point x="262" y="318"/>
      <point x="212" y="268"/>
      <point x="151" y="268" type="curve" smooth="yes"/>
      <point x="90" y="268"/>
      <point x="40" y="318"/>
      <point x="40" y="379" type="curve" smooth="yes"/>
      <point x="40" y="440"/>
      <point x="90" y="490"/>
      <point x="151" y="490" type="curve" smooth="yes"/>
      <point x="212" y="490"/>
      <point x="262" y="440"/>
    </contour>
  </outline>
</glyph>
<glyph name="macron" format="1">
  <advance width="350"/>
  <outline>
    <contour>
      <point x="285" y="489" type="line"/>
      <point x="65" y="489" type="line"/>
      <point x="65" y="564" type="line"/>
      <point x="285" y="564" type="line"/>
    </contour>
  </outline>
</glyph>
<glyph name="onesuperior" format="1">
  <advance width="186"/>
  <outline>
    <contour>
      <point x="136" y="307" type="line"/>
      <point x="62" y="307" type="line"/>
      <point x="62" y="621" type="line"/>
      <point x="58" y="611"/>
      <point x="36" y="598"/>
      <point x="20" y="595" type="curve"/>
      <point x="20" y="670" type="line"/>
      <point x="44" y="677"/>
      <point x="74" y="705"/>
      <point x="77" y="729" type="curve"/>
      <point x="136" y="729" type="line"/>
    </contour>
  </outline>
</glyph>
<glyph name="threesuperior" format="1">
  <advance width="282"/>
  <outline>
    <contour>
      <point x="264" y="443" type="curve" smooth="yes"/>
      <point x="264" y="369"/>
      <point x="228" y="303"/>
      <point x="137" y="303" type="curve" smooth="yes"/>
      <point x="86" y="303"/>
      <point x="47" y="328"/>
      <point x="34" y="350" type="curve"/>
      <point x="89" y="404" type="line"/>
      <point x="102" y="389"/>
      <point x="116" y="378"/>
      <point x="139" y="378" type="curve" smooth="yes"/>
      <point x="175" y="378"/>
      <point x="187" y="406"/>
      <point x="187" y="438" type="curve" smooth="yes"/>
      <point x="187" y="477"/>
      <point x="176" y="504"/>
      <point x="129" y="504" type="curve" smooth="yes"/>
      <point x="118" y="504" type="line"/>
      <point x="118" y="560" type="line"/>
      <point x="125" y="560" type="line" smooth="yes"/>
      <point x="167" y="560"/>
      <point x="177" y="582"/>
      <point x="177" y="617" type="curve" smooth="yes"/>
      <point x="177" y="642"/>
      <point x="167" y="666"/>
      <point x="144" y="666" type="curve" smooth="yes"/>
      <point x="121" y="666"/>
      <point x="107" y="643"/>
      <point x="102" y="621" type="curve"/>
      <point x="37" y="648" type="line"/>
      <point x="44" y="685"/>
      <point x="79" y="740"/>
      <point x="146" y="740" type="curve" smooth="yes"/>
      <point x="228" y="740"/>
      <point x="254" y="669"/>
      <point x="254" y="620" type="curve" smooth="yes"/>
      <point x="254" y="582"/>
      <point x="232" y="542"/>
      <point x="201" y="534" type="curve"/>
      <point x="232" y="530"/>
      <point x="264" y="492"/>
    </contour>
  </outline>
</glyph>
